<svg xmlns="http://www.w3.org/2000/svg" width="1200" height="416" viewBox="0 0 1200 416"><g><g><path fill="#1E1D1B" d="M147.487 178.554l5.88 38.768h.142l7.387-38.768h4.373l7.666 38.768h.143l5.462-38.768h4.93l-7.937 49.342h-4.52l-7.794-38.764h-.133l-7.804 38.764h-4.515l-8.203-49.342zM192.93 178.554V199.7h14.806v-21.146h4.922v49.342h-4.922v-23.25H192.93v23.25h-4.932v-49.342zM239.748 178.554v4.932h-16.916V199.7h12.687v4.945H222.83v19.024h17.617v4.226h-23.262v-49.342zM252.952 178.554l12.718 36.658h.45v-36.658h4.93v49.342h-5.645L250.08 184.9h-.174v42.996h-5.637v-49.342zM316.87 178.554v4.932H307v44.41h-5.64v-44.41h-9.867v-4.932zM327.032 178.554V199.7h14.808v-21.146h4.932v49.342h-4.932v-23.25h-14.808v23.25h-5.636v-49.342zM373.85 178.554v4.932h-16.914V199.7h12.685v4.945h-12.684v19.024h17.617v4.226H351.3v-49.342zM773.065 191.244c-.408-4.93-2.47-8.827-7.596-8.827-4.105 0-6.767 2.772-6.767 6.535 0 11.146 19.828 11.312 19.828 27.178 0 7.856-4.514 12.455-12.645 12.455-7.732 0-12.383-5.62-12.52-14.088h4.92c.145 6.353 2.876 9.582 8.138 9.582 4.447 0 7.32-2.807 7.32-8.068 0-11.226-19.83-12.486-19.83-26.583 0-6.972 4.79-11.535 11.9-11.535s11.76 4.89 12.17 13.35h-4.918zM806.332 178.554v4.932h-9.867v44.41h-5.63v-44.41h-9.878v-4.932zM821.95 228.727c-8.345 0-13.95-6.973-13.95-25.375 0-18.395 5.605-25.376 13.95-25.376 8.346 0 13.95 6.98 13.95 25.376 0 18.402-5.604 25.375-13.95 25.375m0-46.238c-4.788 0-8.618 4.105-8.618 20.86 0 16.764 3.83 20.86 8.618 20.86 4.79 0 8.62-4.097 8.62-20.86 0-16.755-3.83-20.86-8.62-20.86"/><path fill="#1E1D1B" d="M841.23 178.557h11.656c7.933 0 13.144 5.532 13.144 13.75 0 8.203-5.21 13.733-13.144 13.733h-6.02v21.853h-5.64V178.56l.004-.003zm5.638 22.553h5.34c5.33 0 8.478-2.66 8.478-8.803 0-6.168-3.146-8.818-8.48-8.818h-5.338v17.62zM889.656 191.244c-.405-4.93-2.465-8.827-7.592-8.827-4.106 0-6.77 2.772-6.77 6.535 0 11.146 19.83 11.312 19.83 27.178 0 7.856-4.514 12.455-12.657 12.455-7.723 0-12.38-5.62-12.513-14.088h4.922c.133 6.353 2.874 9.582 8.145 9.582 4.452 0 7.315-2.807 7.315-8.068 0-11.226-19.844-12.486-19.844-26.583 0-6.972 4.805-11.535 11.917-11.535 7.104 0 11.76 4.89 12.167 13.35h-4.918zM773.065 191.244c-.408-4.93-2.47-8.827-7.596-8.827-4.105 0-6.767 2.772-6.767 6.535 0 11.146 19.828 11.312 19.828 27.178 0 7.856-4.514 12.455-12.645 12.455-7.732 0-12.383-5.62-12.52-14.088h4.92c.145 6.353 2.876 9.582 8.138 9.582 4.447 0 7.32-2.807 7.32-8.068 0-11.226-19.83-12.486-19.83-26.583 0-6.972 4.79-11.535 11.9-11.535s11.76 4.89 12.17 13.35h-4.918zM806.332 178.554v4.932h-9.867v44.41h-5.63v-44.41h-9.878v-4.932zM821.95 228.727c-8.345 0-13.95-6.973-13.95-25.375 0-18.395 5.605-25.376 13.95-25.376 8.346 0 13.95 6.98 13.95 25.376 0 18.402-5.604 25.375-13.95 25.375m0-46.238c-4.788 0-8.618 4.105-8.618 20.86 0 16.764 3.83 20.86 8.618 20.86 4.79 0 8.62-4.097 8.62-20.86 0-16.755-3.83-20.86-8.62-20.86"/><path fill="#1E1D1B" d="M841.23 178.557h11.656c7.933 0 13.144 5.532 13.144 13.75 0 8.203-5.21 13.733-13.144 13.733h-6.02v21.853h-5.64V178.56l.004-.003zm5.638 22.553h5.34c5.33 0 8.478-2.66 8.478-8.803 0-6.168-3.146-8.818-8.48-8.818h-5.338v17.62zM889.656 191.244c-.405-4.93-2.465-8.827-7.592-8.827-4.106 0-6.77 2.772-6.77 6.535 0 11.146 19.83 11.312 19.83 27.178 0 7.856-4.514 12.455-12.657 12.455-7.723 0-12.38-5.62-12.513-14.088h4.922c.133 6.353 2.874 9.582 8.145 9.582 4.452 0 7.315-2.807 7.315-8.068 0-11.226-19.844-12.486-19.844-26.583 0-6.972 4.805-11.535 11.917-11.535 7.104 0 11.76 4.89 12.167 13.35h-4.918zM1028.268 185.568h-3.276v15.184h3.276c5.547 0 7.256-1.7 7.256-7.59 0-5.88-1.712-7.594-7.256-7.594M997.972 185.29c-3.424 0-4.515 1.784-4.515 5.472v25.05c0 3.695 1.09 5.473 4.515 5.473s4.522-1.773 4.522-5.473v-25.05c0-3.69-1.098-5.472-4.522-5.472M1013.68 133.744h-57.607l-40.497 40.61v57.62l40.497 40.27h57.608l35.248-35.147 5.147-5.12v-57.622l-40.394-40.61zm-74.526 94.942c-7.86 0-12.383-6.304-12.717-13.688l8.064-1.17c.337 5 2.326 7.457 5.065 7.457 2.943 0 4.923-1.568 4.923-4.516 0-9.788-17.24-12.387-17.24-26.55 0-7.865 4.79-12.32 13.135-12.32 6.92 0 11.02 5.005 11.77 11.977l-8.07.897c-.345-4.24-2.602-5.485-4.518-5.485-2.737 0-4.245 1.78-4.245 4.862 0 8.417 17.24 12.46 17.24 25.874.004 8.128-5.456 12.66-13.406 12.66m41.497-42.716h-8.228v42.014h-8.48V185.97h-8.212v-7.38h24.916l.005 7.38zm30.327 30.053c0 6.97-4.104 12.66-13.002 12.66-8.896 0-13-5.69-13-12.66v-25.465c0-6.98 4.103-12.658 13-12.658s13.002 5.68 13.002 12.658v25.465zm17.704-8.285h-3.687v20.247h-8.486V178.59h12.176c10.472 0 15.325 4.04 15.325 14.575-.002 10.537-4.86 14.573-15.327 14.573"/><path fill="#1E1D1B" d="M1046.39 133.834v.898h-2.017v8.97h-1.073v-8.97h-2.016v-.898zM1048.958 133.834l1.724 7.46h.018l1.684-7.46h1.702v9.867h-.99v-9.05h-.032l-2.048 9.05h-.692l-2.05-9.05h-.03v9.05h-.978v-9.866zM548.237 224.032c7.378 0 8.484-4.656 8.484-7.43v-82.457h50.917v82.458c0 28.39-22.086 57.763-59.045 57.763h-.633c-36.96 0-59.047-29.372-59.047-57.763v-82.458h50.926v82.458c0 2.77 1.102 7.43 8.478 7.43h-.08z"/><path fill="#FBEA16" d="M548.593 271.016h-.632c-34.86 0-55.704-27.658-55.704-54.408v-79.11h44.23v79.11c0 2.52.853 10.742 11.777 10.77 10.946-.028 11.804-8.254 11.804-10.77v-79.11H604.3v79.11c0 26.75-20.836 54.408-55.707 54.408m-54.215-131.4v76.99c0 25.7 20.045 52.29 53.583 52.29h.633c33.537 0 53.585-26.59 53.585-52.29v-76.99h-39.992v76.99c0 3.402-1.114 6.515-3.146 8.755-2.435 2.69-6.155 4.13-10.77 4.14-4.6-.01-8.316-1.448-10.75-4.14-2.03-2.24-3.148-5.352-3.148-8.753v-76.992h-39.994z"/><path fill="#1E1D1B" d="M690.457 134.15v42.73l-25.59-39.05-2.232-3.68h-47.847V272.77H665v-42.793l25.938 39.29 2.475 3.503h46.92V134.15z"/><path fill="#FBEA16" d="M736.992 269.42h-41.85l-1.444-2.027-32.05-48.56v50.588H618.13V137.5h42.616l1.298 2.13 31.756 48.456V137.5h43.188l.004 131.92zm-40.755-2.12h38.634V139.617h-38.95v55.572l-35.668-54.428-.693-1.145h-39.31V267.3h39.277v-55.52l35.926 54.41.784 1.11z"/><path fill="#1E1D1B" d="M481.137 181.535v-47.388H388.49V272.76h50.324v-36.81h42.323v-47.07h-42.323v-7.345z"/><path fill="#FBEA16" d="M435.466 269.42h-43.628V137.496h85.952v40.69h-42.324v14.044h42.324v40.377h-42.324v36.812zm-41.508-2.122h39.39v-36.812h42.32v-36.133h-42.32V176.07h42.32v-36.456h-81.71v127.684z"/><path fill="#353537" d="M426.557 257.96c0 1.347-1.09 2.433-2.434 2.433-1.347 0-2.438-1.086-2.438-2.432 0-1.35 1.09-2.433 2.438-2.433 1.343 0 2.434 1.084 2.434 2.434M415.997 257.96c0 1.347-1.09 2.433-2.433 2.433-1.352 0-2.44-1.086-2.44-2.432 0-1.35 1.092-2.433 2.44-2.433 1.342 0 2.433 1.084 2.433 2.434M405.438 257.96c0 1.347-1.09 2.433-2.434 2.433-1.347 0-2.438-1.086-2.438-2.432 0-1.35 1.09-2.433 2.438-2.433 1.343 0 2.434 1.084 2.434 2.434M426.557 248.852c0 1.35-1.09 2.436-2.434 2.436-1.347 0-2.438-1.086-2.438-2.436 0-1.347 1.09-2.434 2.438-2.434 1.343 0 2.434 1.087 2.434 2.434M415.997 248.852c0 1.35-1.09 2.436-2.433 2.436-1.352 0-2.44-1.086-2.44-2.436 0-1.347 1.092-2.434 2.44-2.434 1.342 0 2.433 1.087 2.433 2.434M405.438 248.852c0 1.35-1.09 2.436-2.434 2.436-1.347 0-2.438-1.086-2.438-2.436 0-1.347 1.09-2.434 2.438-2.434 1.343 0 2.434 1.087 2.434 2.434M426.557 239.743c0 1.347-1.09 2.432-2.434 2.432-1.347 0-2.438-1.085-2.438-2.432 0-1.35 1.09-2.435 2.438-2.435 1.343.003 2.434 1.087 2.434 2.435M415.997 239.743c0 1.347-1.09 2.432-2.433 2.432-1.352 0-2.44-1.085-2.44-2.432 0-1.35 1.092-2.435 2.44-2.435 1.342.003 2.433 1.087 2.433 2.435M405.438 239.743c0 1.347-1.09 2.432-2.434 2.432-1.347 0-2.438-1.085-2.438-2.432 0-1.35 1.09-2.435 2.438-2.435 1.343.003 2.434 1.087 2.434 2.435M426.557 230.635c0 1.35-1.09 2.436-2.434 2.436-1.347 0-2.438-1.085-2.438-2.435 0-1.346 1.09-2.433 2.438-2.433 1.343 0 2.434 1.087 2.434 2.433M415.997 230.635c0 1.35-1.09 2.436-2.433 2.436-1.352 0-2.44-1.085-2.44-2.435 0-1.346 1.092-2.433 2.44-2.433 1.342 0 2.433 1.087 2.433 2.433M405.438 230.635c0 1.35-1.09 2.436-2.434 2.436-1.347 0-2.438-1.085-2.438-2.435 0-1.346 1.09-2.433 2.438-2.433 1.343 0 2.434 1.087 2.434 2.433M468.798 221.525c0 1.35-1.09 2.434-2.435 2.434-1.35 0-2.438-1.086-2.438-2.435 0-1.352 1.092-2.436 2.438-2.436 1.344.004 2.435 1.088 2.435 2.435M458.238 221.525c0 1.35-1.092 2.434-2.437 2.434-1.347 0-2.437-1.086-2.437-2.435 0-1.352 1.09-2.436 2.438-2.436 1.346.004 2.438 1.088 2.438 2.435M447.678 221.525c0 1.35-1.09 2.434-2.433 2.434-1.35 0-2.44-1.086-2.44-2.435 0-1.352 1.092-2.436 2.44-2.436 1.342.004 2.433 1.088 2.433 2.435M437.117 221.525c0 1.35-1.09 2.434-2.436 2.434-1.347 0-2.437-1.086-2.437-2.435 0-1.352 1.092-2.436 2.438-2.436 1.347.004 2.437 1.088 2.437 2.435M426.557 221.525c0 1.35-1.09 2.434-2.434 2.434-1.347 0-2.438-1.086-2.438-2.435 0-1.352 1.09-2.436 2.438-2.436 1.343.004 2.434 1.088 2.434 2.435M415.997 221.525c0 1.35-1.09 2.434-2.433 2.434-1.352 0-2.44-1.086-2.44-2.435 0-1.352 1.092-2.436 2.44-2.436 1.342.004 2.433 1.088 2.433 2.435M405.438 221.525c0 1.35-1.09 2.434-2.434 2.434-1.347 0-2.438-1.086-2.438-2.435 0-1.352 1.09-2.436 2.438-2.436 1.343.004 2.434 1.088 2.434 2.435M468.798 212.42c0 1.348-1.09 2.432-2.435 2.432-1.35 0-2.438-1.084-2.438-2.433s1.092-2.434 2.438-2.434c1.344 0 2.435 1.084 2.435 2.433M458.238 212.42c0 1.348-1.092 2.432-2.437 2.432-1.347 0-2.437-1.084-2.437-2.433s1.09-2.434 2.438-2.434c1.346 0 2.438 1.084 2.438 2.433M447.678 212.42c0 1.348-1.09 2.432-2.433 2.432-1.35 0-2.44-1.084-2.44-2.433s1.092-2.434 2.44-2.434c1.342 0 2.433 1.084 2.433 2.433M437.117 212.42c0 1.348-1.09 2.432-2.436 2.432-1.347 0-2.437-1.084-2.437-2.433s1.092-2.434 2.438-2.434 2.437 1.084 2.437 2.433M426.557 212.42c0 1.348-1.09 2.432-2.434 2.432-1.347 0-2.438-1.084-2.438-2.433s1.09-2.434 2.438-2.434c1.343 0 2.434 1.084 2.434 2.433M415.997 212.42c0 1.348-1.09 2.432-2.433 2.432-1.352 0-2.44-1.084-2.44-2.433s1.092-2.434 2.44-2.434c1.342 0 2.433 1.084 2.433 2.433M405.438 212.42c0 1.348-1.09 2.432-2.434 2.432-1.347 0-2.438-1.084-2.438-2.433s1.09-2.434 2.438-2.434c1.343 0 2.434 1.084 2.434 2.433M468.798 203.31c0 1.347-1.09 2.433-2.435 2.433-1.35 0-2.438-1.086-2.438-2.433 0-1.348 1.092-2.434 2.438-2.434 1.344 0 2.435 1.086 2.435 2.434M458.238 203.31c0 1.347-1.092 2.433-2.437 2.433-1.347 0-2.437-1.086-2.437-2.433 0-1.348 1.09-2.434 2.438-2.434 1.346 0 2.438 1.086 2.438 2.434M447.678 203.31c0 1.347-1.09 2.433-2.433 2.433-1.35 0-2.44-1.086-2.44-2.433 0-1.348 1.092-2.434 2.44-2.434 1.342 0 2.433 1.086 2.433 2.434M437.117 203.31c0 1.347-1.09 2.433-2.436 2.433-1.347 0-2.437-1.086-2.437-2.433 0-1.348 1.092-2.434 2.438-2.434s2.437 1.086 2.437 2.434M426.557 203.31c0 1.347-1.09 2.433-2.434 2.433-1.347 0-2.438-1.086-2.438-2.433 0-1.348 1.09-2.434 2.438-2.434 1.343 0 2.434 1.086 2.434 2.434M415.997 203.31c0 1.347-1.09 2.433-2.433 2.433-1.352 0-2.44-1.086-2.44-2.433 0-1.348 1.092-2.434 2.44-2.434 1.342 0 2.433 1.086 2.433 2.434M405.438 203.31c0 1.347-1.09 2.433-2.434 2.433-1.347 0-2.438-1.086-2.438-2.433 0-1.348 1.09-2.434 2.438-2.434 1.343 0 2.434 1.086 2.434 2.434M426.557 194.2c0 1.35-1.09 2.435-2.434 2.435-1.347 0-2.438-1.085-2.438-2.434 0-1.346 1.09-2.432 2.438-2.432 1.343 0 2.434 1.086 2.434 2.433M415.997 194.2c0 1.35-1.09 2.435-2.433 2.435-1.352 0-2.44-1.085-2.44-2.434 0-1.346 1.092-2.432 2.44-2.432 1.342 0 2.433 1.086 2.433 2.433M405.438 194.2c0 1.35-1.09 2.435-2.434 2.435-1.347 0-2.438-1.085-2.438-2.434 0-1.346 1.09-2.432 2.438-2.432 1.343 0 2.434 1.086 2.434 2.433M426.557 185.092c0 1.348-1.09 2.433-2.434 2.433-1.347 0-2.438-1.085-2.438-2.433 0-1.347 1.09-2.433 2.438-2.433 1.343 0 2.434 1.085 2.434 2.432M415.997 185.092c0 1.348-1.09 2.433-2.433 2.433-1.352 0-2.44-1.085-2.44-2.433 0-1.347 1.092-2.433 2.44-2.433 1.342 0 2.433 1.085 2.433 2.432M405.438 185.092c0 1.348-1.09 2.433-2.434 2.433-1.347 0-2.438-1.085-2.438-2.433 0-1.347 1.09-2.433 2.438-2.433 1.343 0 2.434 1.085 2.434 2.432M426.557 175.984c0 1.347-1.09 2.434-2.434 2.434-1.347 0-2.438-1.087-2.438-2.434 0-1.348 1.09-2.434 2.438-2.434 1.343 0 2.434 1.087 2.434 2.434M415.997 175.984c0 1.347-1.09 2.434-2.433 2.434-1.352 0-2.44-1.087-2.44-2.434 0-1.348 1.092-2.434 2.44-2.434 1.342 0 2.433 1.087 2.433 2.434M405.438 175.984c0 1.347-1.09 2.434-2.434 2.434-1.347 0-2.438-1.087-2.438-2.434 0-1.348 1.09-2.434 2.438-2.434 1.343 0 2.434 1.087 2.434 2.434M468.798 166.875c0 1.347-1.09 2.433-2.435 2.433-1.35 0-2.438-1.086-2.438-2.433 0-1.348 1.092-2.434 2.438-2.434 1.344 0 2.435 1.087 2.435 2.435M458.238 166.875c0 1.347-1.092 2.433-2.437 2.433-1.347 0-2.437-1.086-2.437-2.433 0-1.348 1.09-2.434 2.438-2.434 1.346 0 2.438 1.087 2.438 2.435M447.678 166.875c0 1.347-1.09 2.433-2.433 2.433-1.35 0-2.44-1.086-2.44-2.433 0-1.348 1.092-2.434 2.44-2.434 1.342 0 2.433 1.087 2.433 2.435M437.117 166.875c0 1.347-1.09 2.433-2.436 2.433-1.347 0-2.437-1.086-2.437-2.433 0-1.348 1.092-2.434 2.438-2.434s2.437 1.087 2.437 2.435M426.557 166.875c0 1.347-1.09 2.433-2.434 2.433-1.347 0-2.438-1.086-2.438-2.433 0-1.348 1.09-2.434 2.438-2.434 1.343 0 2.434 1.087 2.434 2.435M415.997 166.875c0 1.347-1.09 2.433-2.433 2.433-1.352 0-2.44-1.086-2.44-2.433 0-1.348 1.092-2.434 2.44-2.434 1.342 0 2.433 1.087 2.433 2.435M405.438 166.875c0 1.347-1.09 2.433-2.434 2.433-1.347 0-2.438-1.086-2.438-2.433 0-1.348 1.09-2.434 2.438-2.434 1.343 0 2.434 1.087 2.434 2.435M468.798 157.768c0 1.348-1.09 2.433-2.435 2.433-1.35 0-2.438-1.084-2.438-2.432 0-1.347 1.092-2.433 2.438-2.433 1.344 0 2.435 1.086 2.435 2.433M458.238 157.768c0 1.348-1.092 2.433-2.437 2.433-1.347 0-2.437-1.084-2.437-2.432 0-1.347 1.09-2.433 2.438-2.433 1.346 0 2.438 1.086 2.438 2.433M447.678 157.768c0 1.348-1.09 2.433-2.433 2.433-1.35 0-2.44-1.084-2.44-2.432 0-1.347 1.092-2.433 2.44-2.433 1.342 0 2.433 1.086 2.433 2.433M437.117 157.768c0 1.348-1.09 2.433-2.436 2.433-1.347 0-2.437-1.084-2.437-2.432 0-1.347 1.092-2.433 2.438-2.433s2.437 1.086 2.437 2.433M426.557 157.768c0 1.348-1.09 2.433-2.434 2.433-1.347 0-2.438-1.084-2.438-2.432 0-1.347 1.09-2.433 2.438-2.433 1.343 0 2.434 1.086 2.434 2.433M415.997 157.768c0 1.348-1.09 2.433-2.433 2.433-1.352 0-2.44-1.084-2.44-2.432 0-1.347 1.092-2.433 2.44-2.433 1.342 0 2.433 1.086 2.433 2.433M405.438 157.768c0 1.348-1.09 2.433-2.434 2.433-1.347 0-2.438-1.084-2.438-2.432 0-1.347 1.09-2.433 2.438-2.433 1.343 0 2.434 1.086 2.434 2.433M468.798 148.657c0 1.348-1.09 2.433-2.435 2.433-1.35 0-2.438-1.085-2.438-2.433 0-1.347 1.092-2.433 2.438-2.433 1.344 0 2.435 1.087 2.435 2.433M458.238 148.657c0 1.348-1.092 2.433-2.437 2.433-1.347 0-2.437-1.085-2.437-2.433 0-1.347 1.09-2.433 2.438-2.433 1.346 0 2.438 1.087 2.438 2.433M447.678 148.657c0 1.348-1.09 2.433-2.433 2.433-1.35 0-2.44-1.085-2.44-2.433 0-1.347 1.092-2.433 2.44-2.433 1.342 0 2.433 1.087 2.433 2.433M437.117 148.657c0 1.348-1.09 2.433-2.436 2.433-1.347 0-2.437-1.085-2.437-2.433 0-1.347 1.092-2.433 2.438-2.433s2.437 1.087 2.437 2.433M426.557 148.657c0 1.348-1.09 2.433-2.434 2.433-1.347 0-2.438-1.085-2.438-2.433 0-1.347 1.09-2.433 2.438-2.433 1.343 0 2.434 1.087 2.434 2.433M415.997 148.657c0 1.348-1.09 2.433-2.433 2.433-1.352 0-2.44-1.085-2.44-2.433 0-1.347 1.092-2.433 2.44-2.433 1.342 0 2.433 1.087 2.433 2.433M405.438 148.657c0 1.348-1.09 2.433-2.434 2.433-1.347 0-2.438-1.085-2.438-2.433 0-1.347 1.09-2.433 2.438-2.433 1.343 0 2.434 1.087 2.434 2.433M728.34 258.2c0 1.346-1.09 2.433-2.433 2.433-1.352 0-2.438-1.087-2.438-2.434 0-1.35 1.09-2.433 2.437-2.433 1.343 0 2.433 1.085 2.433 2.432M717.578 258.2c0 1.346-1.09 2.433-2.437 2.433s-2.437-1.087-2.437-2.434c0-1.35 1.092-2.433 2.438-2.433 1.348 0 2.438 1.085 2.438 2.432M706.82 258.2c0 1.346-1.096 2.433-2.437 2.433-1.35 0-2.438-1.087-2.438-2.434 0-1.35 1.09-2.433 2.438-2.433 1.346 0 2.438 1.085 2.438 2.432M653.018 258.2c0 1.346-1.09 2.433-2.435 2.433-1.347 0-2.438-1.087-2.438-2.434 0-1.35 1.095-2.433 2.438-2.433s2.435 1.085 2.435 2.432M642.26 258.2c0 1.346-1.093 2.433-2.437 2.433-1.35 0-2.438-1.087-2.438-2.434 0-1.35 1.09-2.433 2.438-2.433 1.344 0 2.436 1.085 2.436 2.432M631.496 258.2c0 1.346-1.09 2.433-2.438 2.433s-2.438-1.087-2.438-2.434c0-1.35 1.09-2.433 2.438-2.433s2.438 1.085 2.438 2.432M728.34 249.07c0 1.35-1.09 2.433-2.433 2.433-1.352 0-2.438-1.084-2.438-2.433 0-1.348 1.09-2.437 2.437-2.437 1.343.006 2.433 1.092 2.433 2.437M717.578 249.07c0 1.35-1.09 2.433-2.437 2.433s-2.437-1.084-2.437-2.433c0-1.348 1.092-2.437 2.438-2.437 1.348.006 2.438 1.092 2.438 2.437M706.82 249.07c0 1.35-1.096 2.433-2.437 2.433-1.35 0-2.438-1.084-2.438-2.433 0-1.348 1.09-2.437 2.438-2.437 1.346.006 2.438 1.092 2.438 2.437M696.06 249.07c0 1.35-1.09 2.433-2.434 2.433-1.348 0-2.438-1.084-2.438-2.433 0-1.348 1.094-2.437 2.438-2.437 1.343.006 2.435 1.092 2.435 2.437M653.018 249.07c0 1.35-1.09 2.433-2.435 2.433-1.347 0-2.438-1.084-2.438-2.433 0-1.348 1.095-2.437 2.438-2.437 1.344.006 2.435 1.092 2.435 2.437M642.26 249.07c0 1.35-1.093 2.433-2.437 2.433-1.35 0-2.438-1.084-2.438-2.433 0-1.348 1.09-2.437 2.438-2.437 1.344.006 2.436 1.092 2.436 2.437M631.496 249.07c0 1.35-1.09 2.433-2.438 2.433s-2.438-1.084-2.438-2.433c0-1.348 1.09-2.437 2.438-2.437 1.348.006 2.438 1.092 2.438 2.437M728.34 239.943c0 1.346-1.09 2.433-2.433 2.433-1.352 0-2.438-1.087-2.438-2.433 0-1.353 1.09-2.438 2.437-2.438 1.343.003 2.433 1.09 2.433 2.438M717.578 239.943c0 1.346-1.09 2.433-2.437 2.433s-2.437-1.087-2.437-2.433c0-1.353 1.092-2.438 2.438-2.438 1.348.003 2.438 1.09 2.438 2.438M706.82 239.943c0 1.346-1.096 2.433-2.437 2.433-1.35 0-2.438-1.087-2.438-2.433 0-1.353 1.09-2.438 2.438-2.438 1.346.003 2.438 1.09 2.438 2.438M696.06 239.943c0 1.346-1.09 2.433-2.434 2.433-1.348 0-2.438-1.087-2.438-2.433 0-1.353 1.094-2.438 2.438-2.438 1.343.003 2.435 1.09 2.435 2.438M653.018 239.943c0 1.346-1.09 2.433-2.435 2.433-1.347 0-2.438-1.087-2.438-2.433 0-1.353 1.095-2.438 2.438-2.438 1.344.003 2.435 1.09 2.435 2.438M642.26 239.943c0 1.346-1.093 2.433-2.437 2.433-1.35 0-2.438-1.087-2.438-2.433 0-1.353 1.09-2.438 2.438-2.438 1.344.003 2.436 1.09 2.436 2.438M631.496 239.943c0 1.346-1.09 2.433-2.438 2.433s-2.438-1.087-2.438-2.433c0-1.353 1.09-2.438 2.438-2.438 1.348.003 2.438 1.09 2.438 2.438M728.34 230.814c0 1.346-1.09 2.433-2.433 2.433-1.352 0-2.438-1.087-2.438-2.433 0-1.352 1.09-2.437 2.437-2.437 1.343.005 2.433 1.09 2.433 2.437M717.578 230.814c0 1.346-1.09 2.433-2.437 2.433s-2.437-1.087-2.437-2.433c0-1.352 1.092-2.437 2.438-2.437 1.348.005 2.438 1.09 2.438 2.437M706.82 230.814c0 1.346-1.096 2.433-2.437 2.433-1.35 0-2.438-1.087-2.438-2.433 0-1.352 1.09-2.437 2.438-2.437 1.346.005 2.438 1.09 2.438 2.437M696.06 230.814c0 1.346-1.09 2.433-2.434 2.433-1.348 0-2.438-1.087-2.438-2.433 0-1.352 1.094-2.437 2.438-2.437 1.343.005 2.435 1.09 2.435 2.437M685.3 230.814c0 1.346-1.092 2.433-2.436 2.433-1.35 0-2.44-1.087-2.44-2.433 0-1.352 1.094-2.437 2.44-2.437 1.344.005 2.435 1.09 2.435 2.437M653.018 230.814c0 1.346-1.09 2.433-2.435 2.433-1.347 0-2.438-1.087-2.438-2.433 0-1.352 1.095-2.437 2.438-2.437 1.344.005 2.435 1.09 2.435 2.437M642.26 230.814c0 1.346-1.093 2.433-2.437 2.433-1.35 0-2.438-1.087-2.438-2.433 0-1.352 1.09-2.437 2.438-2.437 1.344.005 2.436 1.09 2.436 2.437M631.496 230.814c0 1.346-1.09 2.433-2.438 2.433s-2.438-1.087-2.438-2.433c0-1.352 1.09-2.437 2.438-2.437 1.348.005 2.438 1.09 2.438 2.437M728.34 221.688c0 1.35-1.09 2.436-2.433 2.436-1.352 0-2.438-1.085-2.438-2.436 0-1.35 1.09-2.435 2.437-2.435 1.343 0 2.433 1.085 2.433 2.435M717.578 221.688c0 1.35-1.09 2.436-2.437 2.436s-2.437-1.085-2.437-2.436c0-1.35 1.092-2.435 2.438-2.435 1.348 0 2.438 1.085 2.438 2.435M706.82 221.688c0 1.35-1.096 2.436-2.437 2.436-1.35 0-2.438-1.085-2.438-2.436 0-1.35 1.09-2.435 2.438-2.435 1.346 0 2.438 1.085 2.438 2.435M696.06 221.688c0 1.35-1.09 2.436-2.434 2.436-1.348 0-2.438-1.085-2.438-2.436 0-1.35 1.094-2.435 2.438-2.435 1.343 0 2.435 1.085 2.435 2.435M685.3 221.688c0 1.35-1.092 2.436-2.436 2.436-1.35 0-2.44-1.085-2.44-2.436 0-1.35 1.094-2.435 2.44-2.435 1.344 0 2.435 1.085 2.435 2.435M653.018 221.688c0 1.35-1.09 2.436-2.435 2.436-1.347 0-2.438-1.085-2.438-2.436 0-1.35 1.095-2.435 2.438-2.435s2.435 1.085 2.435 2.435M642.26 221.688c0 1.35-1.093 2.436-2.437 2.436-1.35 0-2.438-1.085-2.438-2.436 0-1.35 1.09-2.435 2.438-2.435 1.344 0 2.436 1.085 2.436 2.435M631.496 221.688c0 1.35-1.09 2.436-2.438 2.436s-2.438-1.085-2.438-2.436c0-1.35 1.09-2.435 2.438-2.435s2.438 1.085 2.438 2.435M728.34 212.56c0 1.35-1.09 2.436-2.433 2.436-1.352 0-2.438-1.086-2.438-2.437 0-1.35 1.09-2.436 2.437-2.436 1.343 0 2.433 1.087 2.433 2.435M717.578 212.56c0 1.35-1.09 2.436-2.437 2.436s-2.437-1.086-2.437-2.437c0-1.35 1.092-2.436 2.438-2.436 1.348 0 2.438 1.087 2.438 2.435M706.82 212.56c0 1.35-1.096 2.436-2.437 2.436-1.35 0-2.438-1.086-2.438-2.437 0-1.35 1.09-2.436 2.438-2.436 1.346 0 2.438 1.087 2.438 2.435M696.06 212.56c0 1.35-1.09 2.436-2.434 2.436-1.348 0-2.438-1.086-2.438-2.437 0-1.35 1.094-2.436 2.438-2.436 1.343 0 2.435 1.087 2.435 2.435M685.3 212.56c0 1.35-1.092 2.436-2.436 2.436-1.35 0-2.44-1.086-2.44-2.437 0-1.35 1.094-2.436 2.44-2.436 1.344 0 2.435 1.087 2.435 2.435M674.538 212.56c0 1.35-1.09 2.436-2.433 2.436-1.352 0-2.44-1.086-2.44-2.437 0-1.35 1.093-2.436 2.44-2.436 1.343 0 2.433 1.087 2.433 2.435M653.018 212.56c0 1.35-1.09 2.436-2.435 2.436-1.347 0-2.438-1.086-2.438-2.437 0-1.35 1.095-2.436 2.438-2.436s2.435 1.087 2.435 2.435M642.26 212.56c0 1.35-1.093 2.436-2.437 2.436-1.35 0-2.438-1.086-2.438-2.437 0-1.35 1.09-2.436 2.438-2.436 1.344 0 2.436 1.087 2.436 2.435M631.496 212.56c0 1.35-1.09 2.436-2.438 2.436s-2.438-1.086-2.438-2.437c0-1.35 1.09-2.436 2.438-2.436s2.438 1.087 2.438 2.435M728.34 203.43c0 1.346-1.09 2.433-2.433 2.433-1.352 0-2.438-1.086-2.438-2.434 0-1.35 1.09-2.434 2.437-2.434 1.343 0 2.433 1.086 2.433 2.433M717.578 203.43c0 1.346-1.09 2.433-2.437 2.433s-2.437-1.086-2.437-2.434c0-1.35 1.092-2.434 2.438-2.434 1.348 0 2.438 1.086 2.438 2.433M706.82 203.43c0 1.346-1.096 2.433-2.437 2.433-1.35 0-2.438-1.086-2.438-2.434 0-1.35 1.09-2.434 2.438-2.434 1.346 0 2.438 1.086 2.438 2.433M696.06 203.43c0 1.346-1.09 2.433-2.434 2.433-1.348 0-2.438-1.086-2.438-2.434 0-1.35 1.094-2.434 2.438-2.434 1.343 0 2.435 1.086 2.435 2.433M685.3 203.43c0 1.346-1.092 2.433-2.436 2.433-1.35 0-2.44-1.086-2.44-2.434 0-1.35 1.094-2.434 2.44-2.434 1.344 0 2.435 1.086 2.435 2.433M674.538 203.43c0 1.346-1.09 2.433-2.433 2.433-1.352 0-2.44-1.086-2.44-2.434 0-1.35 1.093-2.434 2.44-2.434 1.343 0 2.433 1.086 2.433 2.433M663.778 203.43c0 1.346-1.098 2.433-2.438 2.433-1.347 0-2.438-1.086-2.438-2.434 0-1.35 1.093-2.434 2.438-2.434 1.345 0 2.438 1.086 2.438 2.433M653.018 203.43c0 1.346-1.09 2.433-2.435 2.433-1.347 0-2.438-1.086-2.438-2.434 0-1.35 1.095-2.434 2.438-2.434 1.344 0 2.435 1.086 2.435 2.433M642.26 203.43c0 1.346-1.093 2.433-2.437 2.433-1.35 0-2.438-1.086-2.438-2.434 0-1.35 1.09-2.434 2.438-2.434 1.344 0 2.436 1.086 2.436 2.433M631.496 203.43c0 1.346-1.09 2.433-2.438 2.433s-2.438-1.086-2.438-2.434c0-1.35 1.09-2.434 2.438-2.434s2.438 1.086 2.438 2.433M728.34 194.3c0 1.35-1.09 2.435-2.433 2.435-1.352 0-2.438-1.086-2.438-2.434 0-1.347 1.09-2.433 2.437-2.433 1.343 0 2.433 1.086 2.433 2.434M717.578 194.3c0 1.35-1.09 2.435-2.437 2.435s-2.437-1.086-2.437-2.434c0-1.347 1.092-2.433 2.438-2.433 1.348 0 2.438 1.086 2.438 2.434M706.82 194.3c0 1.35-1.096 2.435-2.437 2.435-1.35 0-2.438-1.086-2.438-2.434 0-1.347 1.09-2.433 2.438-2.433 1.346 0 2.438 1.086 2.438 2.434M685.3 194.3c0 1.35-1.092 2.435-2.436 2.435-1.35 0-2.44-1.086-2.44-2.434 0-1.347 1.094-2.433 2.44-2.433 1.344 0 2.435 1.086 2.435 2.434M674.538 194.3c0 1.35-1.09 2.435-2.433 2.435-1.352 0-2.44-1.086-2.44-2.434 0-1.347 1.093-2.433 2.44-2.433 1.343 0 2.433 1.086 2.433 2.434M663.778 194.3c0 1.35-1.098 2.435-2.438 2.435-1.347 0-2.438-1.086-2.438-2.434 0-1.347 1.093-2.433 2.438-2.433s2.438 1.086 2.438 2.434M653.018 194.3c0 1.35-1.09 2.435-2.435 2.435-1.347 0-2.438-1.086-2.438-2.434 0-1.347 1.095-2.433 2.438-2.433s2.435 1.086 2.435 2.434M642.26 194.3c0 1.35-1.093 2.435-2.437 2.435-1.35 0-2.438-1.086-2.438-2.434 0-1.347 1.09-2.433 2.438-2.433 1.344 0 2.436 1.086 2.436 2.434M631.496 194.3c0 1.35-1.09 2.435-2.438 2.435s-2.438-1.086-2.438-2.434c0-1.347 1.09-2.433 2.438-2.433s2.438 1.086 2.438 2.434M728.34 185.173c0 1.347-1.09 2.433-2.433 2.433-1.352 0-2.438-1.086-2.438-2.433 0-1.348 1.09-2.434 2.437-2.434 1.343 0 2.433 1.085 2.433 2.433M717.578 185.173c0 1.347-1.09 2.433-2.437 2.433s-2.437-1.086-2.437-2.433c0-1.348 1.092-2.434 2.438-2.434 1.348 0 2.438 1.085 2.438 2.433M706.82 185.173c0 1.347-1.096 2.433-2.437 2.433-1.35 0-2.438-1.086-2.438-2.433 0-1.348 1.09-2.434 2.438-2.434 1.346 0 2.438 1.085 2.438 2.433M674.538 185.173c0 1.347-1.09 2.433-2.433 2.433-1.352 0-2.44-1.086-2.44-2.433 0-1.348 1.093-2.434 2.44-2.434 1.343 0 2.433 1.085 2.433 2.433M663.778 185.173c0 1.347-1.098 2.433-2.438 2.433-1.347 0-2.438-1.086-2.438-2.433 0-1.348 1.093-2.434 2.438-2.434s2.438 1.085 2.438 2.433M653.018 185.173c0 1.347-1.09 2.433-2.435 2.433-1.347 0-2.438-1.086-2.438-2.433 0-1.348 1.095-2.434 2.438-2.434s2.435 1.085 2.435 2.433M642.26 185.173c0 1.347-1.093 2.433-2.437 2.433-1.35 0-2.438-1.086-2.438-2.433 0-1.348 1.09-2.434 2.438-2.434 1.344 0 2.436 1.085 2.436 2.433M631.496 185.173c0 1.347-1.09 2.433-2.438 2.433s-2.438-1.086-2.438-2.433c0-1.348 1.09-2.434 2.438-2.434s2.438 1.085 2.438 2.433M728.34 176.043c0 1.348-1.09 2.434-2.433 2.434-1.352 0-2.438-1.086-2.438-2.434 0-1.346 1.09-2.433 2.437-2.433 1.343 0 2.433 1.087 2.433 2.433M717.578 176.043c0 1.348-1.09 2.434-2.437 2.434s-2.437-1.086-2.437-2.434c0-1.346 1.092-2.433 2.438-2.433 1.348 0 2.438 1.087 2.438 2.433M706.82 176.043c0 1.348-1.096 2.434-2.437 2.434-1.35 0-2.438-1.086-2.438-2.434 0-1.346 1.09-2.433 2.438-2.433 1.346 0 2.438 1.087 2.438 2.433M674.538 176.043c0 1.348-1.09 2.434-2.433 2.434-1.352 0-2.44-1.086-2.44-2.434 0-1.346 1.093-2.433 2.44-2.433 1.343 0 2.433 1.087 2.433 2.433M663.778 176.043c0 1.348-1.098 2.434-2.438 2.434-1.347 0-2.438-1.086-2.438-2.434 0-1.346 1.093-2.433 2.438-2.433s2.438 1.087 2.438 2.433M653.018 176.043c0 1.348-1.09 2.434-2.435 2.434-1.347 0-2.438-1.086-2.438-2.434 0-1.346 1.095-2.433 2.438-2.433s2.435 1.087 2.435 2.433M642.26 176.043c0 1.348-1.093 2.434-2.437 2.434-1.35 0-2.438-1.086-2.438-2.434 0-1.346 1.09-2.433 2.438-2.433 1.344 0 2.436 1.087 2.436 2.433M631.496 176.043c0 1.348-1.09 2.434-2.438 2.434s-2.438-1.086-2.438-2.434c0-1.346 1.09-2.433 2.438-2.433s2.438 1.087 2.438 2.433M728.34 166.916c0 1.347-1.09 2.433-2.433 2.433-1.352 0-2.438-1.087-2.438-2.434s1.09-2.433 2.437-2.433c1.343 0 2.433 1.086 2.433 2.433M717.578 166.916c0 1.347-1.09 2.433-2.437 2.433s-2.437-1.087-2.437-2.434 1.092-2.433 2.438-2.433c1.348 0 2.438 1.086 2.438 2.433M706.82 166.916c0 1.347-1.096 2.433-2.437 2.433-1.35 0-2.438-1.087-2.438-2.434s1.09-2.433 2.438-2.433c1.346 0 2.438 1.086 2.438 2.433M663.778 166.916c0 1.347-1.098 2.433-2.438 2.433-1.347 0-2.438-1.087-2.438-2.434s1.093-2.433 2.438-2.433 2.438 1.086 2.438 2.433M653.018 166.916c0 1.347-1.09 2.433-2.435 2.433-1.347 0-2.438-1.087-2.438-2.434s1.095-2.433 2.438-2.433 2.435 1.086 2.435 2.433M642.26 166.916c0 1.347-1.093 2.433-2.437 2.433-1.35 0-2.438-1.087-2.438-2.434s1.09-2.433 2.438-2.433c1.344 0 2.436 1.086 2.436 2.433M631.496 166.916c0 1.347-1.09 2.433-2.438 2.433s-2.438-1.087-2.438-2.434 1.09-2.433 2.438-2.433 2.438 1.086 2.438 2.433M728.34 157.787c0 1.347-1.09 2.434-2.433 2.434-1.352 0-2.438-1.085-2.438-2.433 0-1.348 1.09-2.434 2.437-2.434 1.343 0 2.433 1.086 2.433 2.434M717.578 157.787c0 1.347-1.09 2.434-2.437 2.434s-2.437-1.085-2.437-2.433c0-1.348 1.092-2.434 2.438-2.434 1.348 0 2.438 1.086 2.438 2.434M706.82 157.787c0 1.347-1.096 2.434-2.437 2.434-1.35 0-2.438-1.085-2.438-2.433 0-1.348 1.09-2.434 2.438-2.434 1.346 0 2.438 1.086 2.438 2.434M663.778 157.787c0 1.347-1.098 2.434-2.438 2.434-1.347 0-2.438-1.085-2.438-2.433 0-1.348 1.093-2.434 2.438-2.434s2.438 1.086 2.438 2.434M653.018 157.787c0 1.347-1.09 2.434-2.435 2.434-1.347 0-2.438-1.085-2.438-2.433 0-1.348 1.095-2.434 2.438-2.434s2.435 1.086 2.435 2.434M642.26 157.787c0 1.347-1.093 2.434-2.437 2.434-1.35 0-2.438-1.085-2.438-2.433 0-1.348 1.09-2.434 2.438-2.434 1.344 0 2.436 1.086 2.436 2.434M631.496 157.787c0 1.347-1.09 2.434-2.438 2.434s-2.438-1.085-2.438-2.433c0-1.348 1.09-2.434 2.438-2.434s2.438 1.086 2.438 2.434M728.34 148.657c0 1.348-1.09 2.433-2.433 2.433-1.352 0-2.438-1.085-2.438-2.433 0-1.347 1.09-2.433 2.437-2.433 1.343 0 2.433 1.087 2.433 2.433M717.578 148.657c0 1.348-1.09 2.433-2.437 2.433s-2.437-1.085-2.437-2.433c0-1.347 1.092-2.433 2.438-2.433 1.348 0 2.438 1.087 2.438 2.433M706.82 148.657c0 1.348-1.096 2.433-2.437 2.433-1.35 0-2.438-1.085-2.438-2.433 0-1.347 1.09-2.433 2.438-2.433 1.346 0 2.438 1.087 2.438 2.433M653.018 148.657c0 1.348-1.09 2.433-2.435 2.433-1.347 0-2.438-1.085-2.438-2.433 0-1.347 1.095-2.433 2.438-2.433s2.435 1.087 2.435 2.433M642.26 148.657c0 1.348-1.093 2.433-2.437 2.433-1.35 0-2.438-1.085-2.438-2.433 0-1.347 1.09-2.433 2.438-2.433 1.344 0 2.436 1.087 2.436 2.433M631.496 148.657c0 1.348-1.09 2.433-2.438 2.433s-2.438-1.085-2.438-2.433c0-1.347 1.09-2.433 2.438-2.433s2.438 1.087 2.438 2.433M573.233 257.92c0 1.348-1.094 2.432-2.437 2.432-1.348 0-2.437-1.084-2.437-2.433s1.088-2.436 2.436-2.436c1.347 0 2.437 1.086 2.437 2.435M561.873 257.92c0 1.348-1.09 2.432-2.433 2.432-1.352 0-2.438-1.084-2.438-2.433s1.09-2.436 2.438-2.436c1.343 0 2.433 1.086 2.433 2.435M550.513 257.92c0 1.348-1.09 2.432-2.435 2.432-1.348 0-2.44-1.084-2.44-2.433s1.093-2.436 2.44-2.436c1.344 0 2.435 1.086 2.435 2.435M539.152 257.92c0 1.348-1.095 2.432-2.438 2.432-1.347 0-2.438-1.084-2.438-2.433s1.092-2.436 2.438-2.436c1.348 0 2.438 1.086 2.438 2.435M527.79 257.92c0 1.348-1.09 2.432-2.434 2.432-1.35 0-2.438-1.084-2.438-2.433s1.09-2.436 2.438-2.436c1.344 0 2.433 1.086 2.433 2.435M584.595 248.81c0 1.354-1.09 2.44-2.435 2.44-1.35 0-2.438-1.086-2.438-2.44 0-1.344 1.09-2.43 2.438-2.43 1.344 0 2.435 1.086 2.435 2.43M573.233 248.81c0 1.354-1.094 2.44-2.437 2.44-1.348 0-2.437-1.086-2.437-2.44 0-1.344 1.088-2.43 2.436-2.43 1.347 0 2.437 1.086 2.437 2.43M561.873 248.81c0 1.354-1.09 2.44-2.433 2.44-1.352 0-2.438-1.086-2.438-2.44 0-1.344 1.09-2.43 2.438-2.43 1.343 0 2.433 1.086 2.433 2.43M550.513 248.81c0 1.354-1.09 2.44-2.435 2.44-1.348 0-2.44-1.086-2.44-2.44 0-1.344 1.093-2.43 2.44-2.43 1.344 0 2.435 1.086 2.435 2.43M539.152 248.81c0 1.354-1.095 2.44-2.438 2.44-1.347 0-2.438-1.086-2.438-2.44 0-1.344 1.092-2.43 2.438-2.43 1.348 0 2.438 1.086 2.438 2.43M527.79 248.81c0 1.354-1.09 2.44-2.434 2.44-1.35 0-2.438-1.086-2.438-2.44 0-1.344 1.09-2.43 2.438-2.43 1.344 0 2.433 1.086 2.433 2.43M516.43 248.81c0 1.354-1.092 2.44-2.434 2.44-1.348 0-2.44-1.086-2.44-2.44 0-1.344 1.096-2.43 2.44-2.43 1.342 0 2.433 1.086 2.433 2.43M584.595 239.702c0 1.348-1.09 2.435-2.435 2.435-1.35 0-2.438-1.087-2.438-2.435 0-1.347 1.09-2.433 2.438-2.433 1.344 0 2.435 1.085 2.435 2.432M573.233 239.702c0 1.348-1.094 2.435-2.437 2.435-1.348 0-2.437-1.087-2.437-2.435 0-1.347 1.088-2.433 2.436-2.433 1.347 0 2.437 1.085 2.437 2.432M561.873 239.702c0 1.348-1.09 2.435-2.433 2.435-1.352 0-2.438-1.087-2.438-2.435 0-1.347 1.09-2.433 2.438-2.433 1.343 0 2.433 1.085 2.433 2.432M550.513 239.702c0 1.348-1.09 2.435-2.435 2.435-1.348 0-2.44-1.087-2.44-2.435 0-1.347 1.093-2.433 2.44-2.433 1.344 0 2.435 1.085 2.435 2.432M539.152 239.702c0 1.348-1.095 2.435-2.438 2.435-1.347 0-2.438-1.087-2.438-2.435 0-1.347 1.092-2.433 2.438-2.433 1.348 0 2.438 1.085 2.438 2.432M527.79 239.702c0 1.348-1.09 2.435-2.434 2.435-1.35 0-2.438-1.087-2.438-2.435 0-1.347 1.09-2.433 2.438-2.433 1.344 0 2.433 1.085 2.433 2.432M516.43 239.702c0 1.348-1.092 2.435-2.434 2.435-1.348 0-2.44-1.087-2.44-2.435 0-1.347 1.096-2.433 2.44-2.433 1.342 0 2.433 1.085 2.433 2.432M595.956 230.596c0 1.346-1.092 2.434-2.435 2.434-1.35 0-2.437-1.088-2.437-2.434 0-1.35 1.09-2.434 2.438-2.434 1.344 0 2.436 1.085 2.436 2.434M584.595 230.596c0 1.346-1.09 2.434-2.435 2.434-1.35 0-2.438-1.088-2.438-2.434 0-1.35 1.09-2.434 2.438-2.434 1.344 0 2.435 1.085 2.435 2.434M573.233 230.596c0 1.346-1.094 2.434-2.437 2.434-1.348 0-2.437-1.088-2.437-2.434 0-1.35 1.088-2.434 2.436-2.434 1.347 0 2.437 1.085 2.437 2.434M527.79 230.596c0 1.346-1.09 2.434-2.434 2.434-1.35 0-2.438-1.088-2.438-2.434 0-1.35 1.09-2.434 2.438-2.434 1.344 0 2.433 1.085 2.433 2.434M516.43 230.596c0 1.346-1.092 2.434-2.434 2.434-1.348 0-2.44-1.088-2.44-2.434 0-1.35 1.096-2.434 2.44-2.434 1.342 0 2.433 1.085 2.433 2.434M505.07 230.596c0 1.346-1.092 2.434-2.438 2.434-1.348 0-2.438-1.088-2.438-2.434 0-1.35 1.09-2.434 2.438-2.434 1.347 0 2.437 1.085 2.437 2.434M595.956 221.484c0 1.35-1.092 2.436-2.435 2.436-1.35 0-2.437-1.087-2.437-2.436 0-1.346 1.09-2.436 2.438-2.436 1.344.005 2.436 1.09 2.436 2.436M584.595 221.484c0 1.35-1.09 2.436-2.435 2.436-1.35 0-2.438-1.087-2.438-2.436 0-1.346 1.09-2.436 2.438-2.436 1.344.005 2.435 1.09 2.435 2.436M573.233 221.484c0 1.35-1.094 2.436-2.437 2.436-1.348 0-2.437-1.087-2.437-2.436 0-1.346 1.088-2.436 2.436-2.436 1.347.005 2.437 1.09 2.437 2.436M527.79 221.484c0 1.35-1.09 2.436-2.434 2.436-1.35 0-2.438-1.087-2.438-2.436 0-1.346 1.09-2.436 2.438-2.436 1.344.005 2.433 1.09 2.433 2.436M516.43 221.484c0 1.35-1.092 2.436-2.434 2.436-1.348 0-2.44-1.087-2.44-2.436 0-1.346 1.096-2.436 2.44-2.436 1.342.005 2.433 1.09 2.433 2.436M505.07 221.484c0 1.35-1.092 2.436-2.438 2.436-1.348 0-2.438-1.087-2.438-2.436 0-1.346 1.09-2.436 2.438-2.436 1.347.005 2.437 1.09 2.437 2.436M595.956 212.38c0 1.347-1.092 2.433-2.435 2.433-1.35 0-2.437-1.086-2.437-2.434s1.09-2.435 2.438-2.435c1.344 0 2.436 1.086 2.436 2.434M584.595 212.38c0 1.347-1.09 2.433-2.435 2.433-1.35 0-2.438-1.086-2.438-2.434s1.09-2.435 2.438-2.435c1.344 0 2.435 1.086 2.435 2.434M573.233 212.38c0 1.347-1.094 2.433-2.437 2.433-1.348 0-2.437-1.086-2.437-2.434s1.088-2.435 2.436-2.435c1.347 0 2.437 1.086 2.437 2.434M527.79 212.38c0 1.347-1.09 2.433-2.434 2.433-1.35 0-2.438-1.086-2.438-2.434s1.09-2.435 2.438-2.435c1.344 0 2.433 1.086 2.433 2.434M516.43 212.38c0 1.347-1.092 2.433-2.434 2.433-1.348 0-2.44-1.086-2.44-2.434s1.096-2.435 2.44-2.435c1.342 0 2.433 1.086 2.433 2.434M505.07 212.38c0 1.347-1.092 2.433-2.438 2.433-1.348 0-2.438-1.086-2.438-2.434s1.09-2.435 2.438-2.435c1.347 0 2.437 1.086 2.437 2.434M595.956 203.27c0 1.347-1.092 2.434-2.435 2.434-1.35 0-2.437-1.086-2.437-2.434s1.09-2.433 2.438-2.433c1.344 0 2.436 1.086 2.436 2.433M584.595 203.27c0 1.347-1.09 2.434-2.435 2.434-1.35 0-2.438-1.086-2.438-2.434s1.09-2.433 2.438-2.433c1.344 0 2.435 1.086 2.435 2.433M573.233 203.27c0 1.347-1.094 2.434-2.437 2.434-1.348 0-2.437-1.086-2.437-2.434s1.088-2.433 2.436-2.433c1.347 0 2.437 1.086 2.437 2.433M527.79 203.27c0 1.347-1.09 2.434-2.434 2.434-1.35 0-2.438-1.086-2.438-2.434s1.09-2.433 2.438-2.433c1.344 0 2.433 1.086 2.433 2.433M516.43 203.27c0 1.347-1.092 2.434-2.434 2.434-1.348 0-2.44-1.086-2.44-2.434s1.096-2.433 2.44-2.433c1.342 0 2.433 1.086 2.433 2.433M505.07 203.27c0 1.347-1.092 2.434-2.438 2.434-1.348 0-2.438-1.086-2.438-2.434s1.09-2.433 2.438-2.433c1.347 0 2.437 1.086 2.437 2.433M595.956 194.162c0 1.347-1.092 2.434-2.435 2.434-1.35 0-2.437-1.087-2.437-2.434 0-1.347 1.09-2.433 2.438-2.433 1.344 0 2.436 1.085 2.436 2.432M584.595 194.162c0 1.347-1.09 2.434-2.435 2.434-1.35 0-2.438-1.087-2.438-2.434 0-1.347 1.09-2.433 2.438-2.433 1.344 0 2.435 1.085 2.435 2.432M573.233 194.162c0 1.347-1.094 2.434-2.437 2.434-1.348 0-2.437-1.087-2.437-2.434 0-1.347 1.088-2.433 2.436-2.433 1.347 0 2.437 1.085 2.437 2.432M527.79 194.162c0 1.347-1.09 2.434-2.434 2.434-1.35 0-2.438-1.087-2.438-2.434 0-1.347 1.09-2.433 2.438-2.433 1.344 0 2.433 1.085 2.433 2.432M516.43 194.162c0 1.347-1.092 2.434-2.434 2.434-1.348 0-2.44-1.087-2.44-2.434 0-1.347 1.096-2.433 2.44-2.433 1.342 0 2.433 1.085 2.433 2.432M505.07 194.162c0 1.347-1.092 2.434-2.438 2.434-1.348 0-2.438-1.087-2.438-2.434 0-1.347 1.09-2.433 2.438-2.433 1.347 0 2.437 1.085 2.437 2.432M595.956 185.052c0 1.35-1.092 2.434-2.435 2.434-1.35 0-2.437-1.085-2.437-2.434 0-1.347 1.09-2.432 2.438-2.432 1.344 0 2.436 1.085 2.436 2.432M584.595 185.052c0 1.35-1.09 2.434-2.435 2.434-1.35 0-2.438-1.085-2.438-2.434 0-1.347 1.09-2.432 2.438-2.432 1.344 0 2.435 1.085 2.435 2.432M573.233 185.052c0 1.35-1.094 2.434-2.437 2.434-1.348 0-2.437-1.085-2.437-2.434 0-1.347 1.088-2.432 2.436-2.432 1.347 0 2.437 1.085 2.437 2.432M527.79 185.052c0 1.35-1.09 2.434-2.434 2.434-1.35 0-2.438-1.085-2.438-2.434 0-1.347 1.09-2.432 2.438-2.432 1.344 0 2.433 1.085 2.433 2.432M516.43 185.052c0 1.35-1.092 2.434-2.434 2.434-1.348 0-2.44-1.085-2.44-2.434 0-1.347 1.096-2.432 2.44-2.432 1.342 0 2.433 1.085 2.433 2.432M505.07 185.052c0 1.35-1.092 2.434-2.438 2.434-1.348 0-2.438-1.085-2.438-2.434 0-1.347 1.09-2.432 2.438-2.432 1.347 0 2.437 1.085 2.437 2.432M595.956 175.945c0 1.348-1.092 2.434-2.435 2.434-1.35 0-2.437-1.086-2.437-2.435 0-1.347 1.09-2.434 2.438-2.434 1.344 0 2.436 1.088 2.436 2.435M584.595 175.945c0 1.348-1.09 2.434-2.435 2.434-1.35 0-2.438-1.086-2.438-2.435 0-1.347 1.09-2.434 2.438-2.434 1.344 0 2.435 1.088 2.435 2.435M573.233 175.945c0 1.348-1.094 2.434-2.437 2.434-1.348 0-2.437-1.086-2.437-2.435 0-1.347 1.088-2.434 2.436-2.434 1.347 0 2.437 1.088 2.437 2.435M527.79 175.945c0 1.348-1.09 2.434-2.434 2.434-1.35 0-2.438-1.086-2.438-2.435 0-1.347 1.09-2.434 2.438-2.434 1.344 0 2.433 1.088 2.433 2.435M516.43 175.945c0 1.348-1.092 2.434-2.434 2.434-1.348 0-2.44-1.086-2.44-2.435 0-1.347 1.096-2.434 2.44-2.434 1.342 0 2.433 1.088 2.433 2.435M505.07 175.945c0 1.348-1.092 2.434-2.438 2.434-1.348 0-2.438-1.086-2.438-2.435 0-1.347 1.09-2.434 2.438-2.434 1.347 0 2.437 1.088 2.437 2.435M595.956 166.834c0 1.348-1.092 2.434-2.435 2.434-1.35 0-2.437-1.086-2.437-2.434 0-1.347 1.09-2.433 2.438-2.433 1.344.002 2.436 1.087 2.436 2.434M584.595 166.834c0 1.348-1.09 2.434-2.435 2.434-1.35 0-2.438-1.086-2.438-2.434 0-1.347 1.09-2.433 2.438-2.433 1.344.002 2.435 1.087 2.435 2.434M573.233 166.834c0 1.348-1.094 2.434-2.437 2.434-1.348 0-2.437-1.086-2.437-2.434 0-1.347 1.088-2.433 2.436-2.433 1.347.002 2.437 1.087 2.437 2.434M527.79 166.834c0 1.348-1.09 2.434-2.434 2.434-1.35 0-2.438-1.086-2.438-2.434 0-1.347 1.09-2.433 2.438-2.433 1.344.002 2.433 1.087 2.433 2.434M516.43 166.834c0 1.348-1.092 2.434-2.434 2.434-1.348 0-2.44-1.086-2.44-2.434 0-1.347 1.096-2.433 2.44-2.433 1.342.002 2.433 1.087 2.433 2.434M505.07 166.834c0 1.348-1.092 2.434-2.438 2.434-1.348 0-2.438-1.086-2.438-2.434 0-1.347 1.09-2.433 2.438-2.433 1.347.002 2.437 1.087 2.437 2.434M595.956 157.728c0 1.348-1.092 2.434-2.435 2.434-1.35 0-2.437-1.086-2.437-2.434 0-1.347 1.09-2.433 2.438-2.433 1.344 0 2.436 1.085 2.436 2.433M584.595 157.728c0 1.348-1.09 2.434-2.435 2.434-1.35 0-2.438-1.086-2.438-2.434 0-1.347 1.09-2.433 2.438-2.433 1.344 0 2.435 1.085 2.435 2.433M573.233 157.728c0 1.348-1.094 2.434-2.437 2.434-1.348 0-2.437-1.086-2.437-2.434 0-1.347 1.088-2.433 2.436-2.433 1.347 0 2.437 1.085 2.437 2.433M527.79 157.728c0 1.348-1.09 2.434-2.434 2.434-1.35 0-2.438-1.086-2.438-2.434 0-1.347 1.09-2.433 2.438-2.433 1.344 0 2.433 1.085 2.433 2.433M516.43 157.728c0 1.348-1.092 2.434-2.434 2.434-1.348 0-2.44-1.086-2.44-2.434 0-1.347 1.096-2.433 2.44-2.433 1.342 0 2.433 1.085 2.433 2.433M505.07 157.728c0 1.348-1.092 2.434-2.438 2.434-1.348 0-2.438-1.086-2.438-2.434 0-1.347 1.09-2.433 2.438-2.433 1.347 0 2.437 1.085 2.437 2.433M595.956 148.617c0 1.347-1.092 2.434-2.435 2.434-1.35 0-2.437-1.086-2.437-2.433 0-1.346 1.09-2.432 2.438-2.432 1.344 0 2.436 1.086 2.436 2.432M584.595 148.617c0 1.347-1.09 2.434-2.435 2.434-1.35 0-2.438-1.086-2.438-2.433 0-1.346 1.09-2.432 2.438-2.432 1.344 0 2.435 1.086 2.435 2.432M573.233 148.617c0 1.347-1.094 2.434-2.437 2.434-1.348 0-2.437-1.086-2.437-2.433 0-1.346 1.088-2.432 2.436-2.432 1.347 0 2.437 1.086 2.437 2.432M527.79 148.617c0 1.347-1.09 2.434-2.434 2.434-1.35 0-2.438-1.086-2.438-2.433 0-1.346 1.09-2.432 2.438-2.432 1.344 0 2.433 1.086 2.433 2.432M516.43 148.617c0 1.347-1.092 2.434-2.434 2.434-1.348 0-2.44-1.086-2.44-2.433 0-1.346 1.096-2.432 2.44-2.432 1.342 0 2.433 1.086 2.433 2.432M505.07 148.617c0 1.347-1.092 2.434-2.438 2.434-1.348 0-2.438-1.086-2.438-2.433 0-1.346 1.09-2.432 2.438-2.432 1.347 0 2.437 1.086 2.437 2.432"/></g></g><g><path fill="#1D1C1A" d="M146.69 178.762l5.89 38.82h.14l7.398-38.82h4.378l7.677 38.82h.143l5.472-38.82h4.937l-7.95 49.412h-4.525l-7.805-38.82h-.133l-7.816 38.82h-4.52l-8.215-49.412zM192.193 178.762v21.175h14.828v-21.175h4.93v49.412h-4.93V204.89h-14.827v23.284h-4.937v-49.412zM239.077 178.762v4.94h-16.94v16.235h12.704v4.952h-12.703v19.048h17.642v4.236h-23.295v-49.412zM252.298 178.762l12.735 36.71h.45v-36.71h4.94v49.412h-5.655l-15.347-43.056h-.172v43.056h-5.645v-49.412zM316.303 178.762v4.94h-9.882v44.472h-5.648V183.7h-9.88v-4.938zM326.48 178.762v21.175h14.827v-21.175h4.94v49.412h-4.94V204.89H326.48v23.284h-5.644v-49.412zM373.36 178.762v4.94h-16.936v16.235h12.702v4.952h-12.702v19.048h17.64v4.236H350.78v-49.412zM773.122 191.47c-.41-4.938-2.47-8.84-7.604-8.84-4.112 0-6.774 2.777-6.774 6.545 0 11.16 19.854 11.326 19.854 27.214 0 7.868-4.52 12.472-12.66 12.472-7.746 0-12.4-5.627-12.54-14.105h4.928c.144 6.358 2.88 9.596 8.148 9.596 4.452 0 7.328-2.81 7.328-8.08 0-11.24-19.854-12.5-19.854-26.62 0-6.98 4.796-11.548 11.918-11.548 7.12 0 11.772 4.896 12.185 13.367l-4.928-.002zM806.433 178.762v4.94h-9.88v44.472h-5.64V183.7h-9.892v-4.938zM822.072 229.002c-8.357 0-13.97-6.98-13.97-25.41 0-18.42 5.61-25.41 13.97-25.41 8.357 0 13.97 6.99 13.97 25.41 0 18.43-5.612 25.41-13.97 25.41m0-46.3c-4.795 0-8.63 4.113-8.63 20.89 0 16.787 3.835 20.89 8.63 20.89s8.632-4.103 8.632-20.89c0-16.778-3.837-20.89-8.632-20.89"/><path fill="#1D1C1A" d="M841.38 178.766h11.675c7.938 0 13.157 5.54 13.157 13.77 0 8.212-5.22 13.75-13.157 13.75h-6.03v21.882h-5.645v-49.402zm5.643 22.583h5.345c5.34 0 8.493-2.663 8.493-8.815 0-6.178-3.152-8.83-8.492-8.83h-5.345v17.644zM889.87 191.47c-.406-4.938-2.468-8.84-7.603-8.84-4.11 0-6.77 2.777-6.77 6.545 0 11.16 19.855 11.326 19.855 27.214 0 7.868-4.52 12.472-12.678 12.472-7.73 0-12.396-5.627-12.53-14.105h4.933c.132 6.358 2.876 9.596 8.148 9.596 4.463 0 7.328-2.81 7.328-8.08 0-11.24-19.87-12.5-19.87-26.62 0-6.98 4.813-11.548 11.934-11.548 7.112 0 11.774 4.896 12.183 13.367l-4.93-.002zM773.122 191.47c-.41-4.938-2.47-8.84-7.604-8.84-4.112 0-6.774 2.777-6.774 6.545 0 11.16 19.854 11.326 19.854 27.214 0 7.868-4.52 12.472-12.66 12.472-7.746 0-12.4-5.627-12.54-14.105h4.928c.144 6.358 2.88 9.596 8.148 9.596 4.452 0 7.328-2.81 7.328-8.08 0-11.24-19.854-12.5-19.854-26.62 0-6.98 4.796-11.548 11.918-11.548 7.12 0 11.772 4.896 12.185 13.367l-4.928-.002zM806.433 178.762v4.94h-9.88v44.472h-5.64V183.7h-9.892v-4.938zM822.072 229.002c-8.357 0-13.97-6.98-13.97-25.41 0-18.42 5.61-25.41 13.97-25.41 8.357 0 13.97 6.99 13.97 25.41 0 18.43-5.612 25.41-13.97 25.41m0-46.3c-4.795 0-8.63 4.113-8.63 20.89 0 16.787 3.835 20.89 8.63 20.89s8.632-4.103 8.632-20.89c0-16.778-3.837-20.89-8.632-20.89"/><path fill="#1D1C1A" d="M841.38 178.766h11.675c7.938 0 13.157 5.54 13.157 13.77 0 8.212-5.22 13.75-13.157 13.75h-6.03v21.882h-5.645v-49.402zm5.643 22.583h5.345c5.34 0 8.493-2.663 8.493-8.815 0-6.178-3.152-8.83-8.492-8.83h-5.345v17.644zM889.87 191.47c-.406-4.938-2.468-8.84-7.603-8.84-4.11 0-6.77 2.777-6.77 6.545 0 11.16 19.855 11.326 19.855 27.214 0 7.868-4.52 12.472-12.678 12.472-7.73 0-12.396-5.627-12.53-14.105h4.933c.132 6.358 2.876 9.596 8.148 9.596 4.463 0 7.328-2.81 7.328-8.08 0-11.24-19.87-12.5-19.87-26.62 0-6.98 4.813-11.548 11.934-11.548 7.112 0 11.774 4.896 12.183 13.367l-4.93-.002zM1028.67 185.786h-3.285v15.204h3.286c5.555 0 7.266-1.702 7.266-7.6 0-5.887-1.71-7.604-7.265-7.604M998.334 185.507c-3.43 0-4.52 1.786-4.52 5.48v25.083c0 3.703 1.093 5.48 4.52 5.48 3.427 0 4.527-1.777 4.527-5.48v-25.083c0-3.694-1.1-5.48-4.526-5.48M1014.062 133.89h-57.69l-40.552 40.666v57.7l40.552 40.317h57.69l35.295-35.188 5.155-5.13v-57.7l-40.45-40.664zm-74.626 95.07c-7.87 0-12.4-6.312-12.732-13.707l8.078-1.172c.337 5.01 2.33 7.468 5.07 7.468 2.953 0 4.93-1.57 4.93-4.52 0-9.798-17.262-12.4-17.262-26.585 0-7.875 4.795-12.336 13.152-12.336 6.927 0 11.03 5.012 11.783 11.993l-8.08.898c-.347-4.244-2.604-5.492-4.523-5.492-2.74 0-4.252 1.784-4.252 4.87 0 8.43 17.266 12.476 17.266 25.91-.002 8.14-5.47 12.674-13.43 12.674m41.553-42.772h-8.237v42.07h-8.492v-42.07h-8.22V178.8h24.95v7.388zm30.365 30.096c0 6.98-4.11 12.676-13.02 12.676-8.908 0-13.02-5.696-13.02-12.676v-25.5c0-6.99 4.11-12.677 13.02-12.677 8.908 0 13.02 5.688 13.02 12.676v25.5zm17.73-8.297h-3.696v20.273h-8.497V178.8h12.192c10.48 0 15.345 4.043 15.345 14.594 0 10.55-4.866 14.593-15.345 14.593"/><path fill="#1D1C1A" d="M1046.816 133.98v.9h-2.017v8.98h-1.078v-8.98h-2.017v-.9zM1049.39 133.98l1.724 7.473h.02l1.685-7.472h1.703v9.88h-.99V134.8h-.03l-2.054 9.063h-.692l-2.054-9.062h-.03v9.063h-.98v-9.88zM547.986 224.303c7.39 0 8.5-4.664 8.5-7.438v-82.57h50.982v82.57c0 28.43-22.114 57.84-59.125 57.84h-.634c-37.01 0-59.127-29.41-59.127-57.84v-82.57h50.996v82.57c0 2.773 1.1 7.438 8.49 7.438h-.084z"/><path fill="#FCEA03" d="M548.342 271.35h-.633c-34.91 0-55.782-27.695-55.782-54.48v-79.222h44.29v79.222c0 2.52.857 10.756 11.798 10.783 10.96-.027 11.816-8.264 11.816-10.783v-79.222h44.292v79.222c0 26.784-20.862 54.48-55.782 54.48m-54.288-131.58v77.1c0 25.73 20.072 52.358 53.655 52.358h.632c33.584 0 53.66-26.627 53.66-52.36V139.77h-40.048v77.1c0 3.405-1.12 6.52-3.154 8.766-2.436 2.69-6.162 4.132-10.784 4.142-4.604-.01-8.328-1.45-10.766-4.142-2.033-2.245-3.152-5.36-3.152-8.767v-77.1h-40.044z"/><path fill="#1D1C1A" d="M690.4 134.3v42.788l-25.625-39.105-2.237-3.683h-47.91v138.805h50.28v-42.853l25.974 39.342 2.477 3.51h46.983V134.3z"/><path fill="#FCEA03" d="M736.998 269.753h-41.903l-1.45-2.032-32.093-48.624v50.657H617.98v-132.1h42.673l1.3 2.132 31.798 48.522v-50.655H737v132.1zm-40.81-2.124h38.688V139.77h-39.002v55.65l-35.718-54.502-.695-1.147H620.1V267.63h39.328v-55.6l35.98 54.487.78 1.114z"/><path fill="#1D1C1A" d="M480.794 181.747v-47.452H388.02v138.803h50.395v-36.86h42.38v-47.135h-42.38v-7.356z"/><path fill="#FCEA03" d="M435.06 269.75h-43.687v-132.1h86.07v40.746H435.06v14.062h42.383v40.435H435.06v36.858zm-41.563-2.123h39.444v-36.86h42.378V194.58H432.94v-18.306h42.378V139.77h-81.822v127.857z"/><path fill="#fff" d="M426.14 258.275c0 1.35-1.092 2.438-2.437 2.438-1.35 0-2.44-1.09-2.44-2.438 0-1.35 1.09-2.436 2.44-2.436 1.344 0 2.437 1.087 2.437 2.435M415.565 258.275c0 1.35-1.093 2.438-2.437 2.438-1.35 0-2.44-1.09-2.44-2.438 0-1.35 1.092-2.436 2.44-2.436 1.345 0 2.437 1.087 2.437 2.435M404.992 258.275c0 1.35-1.093 2.438-2.438 2.438-1.35 0-2.44-1.09-2.44-2.438 0-1.35 1.093-2.436 2.44-2.436 1.345 0 2.438 1.087 2.438 2.435M426.14 249.156c0 1.348-1.092 2.434-2.437 2.434-1.35 0-2.44-1.086-2.44-2.434 0-1.35 1.09-2.438 2.44-2.438 1.344 0 2.437 1.09 2.437 2.438M415.565 249.156c0 1.348-1.093 2.434-2.437 2.434-1.35 0-2.44-1.086-2.44-2.434 0-1.35 1.092-2.438 2.44-2.438 1.345 0 2.437 1.09 2.437 2.438M404.992 249.156c0 1.348-1.093 2.434-2.438 2.434-1.35 0-2.44-1.086-2.44-2.434 0-1.35 1.093-2.438 2.44-2.438 1.345 0 2.438 1.09 2.438 2.438M426.14 240.033c0 1.35-1.092 2.438-2.437 2.438-1.35 0-2.44-1.086-2.44-2.437 0-1.35 1.09-2.436 2.44-2.436 1.344 0 2.437 1.087 2.437 2.436M415.565 240.033c0 1.35-1.093 2.438-2.437 2.438-1.35 0-2.44-1.086-2.44-2.437 0-1.35 1.092-2.436 2.44-2.436 1.345 0 2.437 1.087 2.437 2.436M404.992 240.033c0 1.35-1.093 2.438-2.438 2.438-1.35 0-2.44-1.086-2.44-2.437 0-1.35 1.093-2.436 2.44-2.436 1.345 0 2.438 1.087 2.438 2.436M426.14 230.914c0 1.35-1.092 2.438-2.437 2.438-1.35 0-2.44-1.088-2.44-2.438 0-1.348 1.09-2.436 2.44-2.436 1.344 0 2.437 1.088 2.437 2.436M415.565 230.914c0 1.35-1.093 2.438-2.437 2.438-1.35 0-2.44-1.088-2.44-2.438 0-1.348 1.092-2.436 2.44-2.436 1.345 0 2.437 1.088 2.437 2.436M404.992 230.914c0 1.35-1.093 2.438-2.438 2.438-1.35 0-2.44-1.088-2.44-2.438 0-1.348 1.093-2.436 2.44-2.436 1.345 0 2.438 1.088 2.438 2.436M468.438 221.794c0 1.35-1.093 2.437-2.438 2.437-1.35 0-2.442-1.087-2.442-2.436 0-1.35 1.094-2.437 2.442-2.437 1.345 0 2.438 1.086 2.438 2.437M457.864 221.794c0 1.35-1.093 2.437-2.438 2.437-1.35 0-2.44-1.087-2.44-2.436 0-1.35 1.092-2.437 2.44-2.437 1.345 0 2.438 1.086 2.438 2.437M447.29 221.794c0 1.35-1.092 2.437-2.437 2.437-1.35 0-2.443-1.087-2.443-2.436 0-1.35 1.095-2.437 2.443-2.437 1.344 0 2.437 1.086 2.437 2.437M436.715 221.794c0 1.35-1.092 2.437-2.436 2.437-1.35 0-2.444-1.087-2.444-2.436 0-1.35 1.094-2.437 2.443-2.437 1.343 0 2.435 1.086 2.435 2.437M426.14 221.794c0 1.35-1.092 2.437-2.437 2.437-1.35 0-2.44-1.087-2.44-2.436 0-1.35 1.09-2.437 2.44-2.437 1.344 0 2.437 1.086 2.437 2.437M415.565 221.794c0 1.35-1.093 2.437-2.437 2.437-1.35 0-2.44-1.087-2.44-2.436 0-1.35 1.092-2.437 2.44-2.437 1.345 0 2.437 1.086 2.437 2.437M404.992 221.794c0 1.35-1.093 2.437-2.438 2.437-1.35 0-2.44-1.087-2.44-2.436 0-1.35 1.093-2.437 2.44-2.437 1.345 0 2.438 1.086 2.438 2.437M468.438 212.673c0 1.35-1.093 2.438-2.438 2.438-1.35 0-2.442-1.087-2.442-2.437 0-1.35 1.094-2.437 2.442-2.437 1.345 0 2.438 1.087 2.438 2.437M457.864 212.673c0 1.35-1.093 2.438-2.438 2.438-1.35 0-2.44-1.087-2.44-2.437 0-1.35 1.092-2.437 2.44-2.437 1.345 0 2.438 1.087 2.438 2.437M447.29 212.673c0 1.35-1.092 2.438-2.437 2.438-1.35 0-2.443-1.087-2.443-2.437 0-1.35 1.095-2.437 2.443-2.437 1.344 0 2.437 1.087 2.437 2.437M436.715 212.673c0 1.35-1.092 2.438-2.436 2.438-1.35 0-2.444-1.087-2.444-2.437 0-1.35 1.094-2.437 2.443-2.437 1.343 0 2.435 1.087 2.435 2.437M426.14 212.673c0 1.35-1.092 2.438-2.437 2.438-1.35 0-2.44-1.087-2.44-2.437 0-1.35 1.09-2.437 2.44-2.437 1.344 0 2.437 1.087 2.437 2.437M415.565 212.673c0 1.35-1.093 2.438-2.437 2.438-1.35 0-2.44-1.087-2.44-2.437 0-1.35 1.092-2.437 2.44-2.437 1.345 0 2.437 1.087 2.437 2.437M404.992 212.673c0 1.35-1.093 2.438-2.438 2.438-1.35 0-2.44-1.087-2.44-2.437 0-1.35 1.093-2.437 2.44-2.437 1.345 0 2.438 1.087 2.438 2.437M468.438 203.552c0 1.35-1.093 2.438-2.438 2.438-1.35 0-2.442-1.088-2.442-2.438s1.094-2.437 2.442-2.437c1.345 0 2.438 1.088 2.438 2.437M457.864 203.552c0 1.35-1.093 2.438-2.438 2.438-1.35 0-2.44-1.088-2.44-2.438s1.092-2.437 2.44-2.437c1.345 0 2.438 1.088 2.438 2.437M447.29 203.552c0 1.35-1.092 2.438-2.437 2.438-1.35 0-2.443-1.088-2.443-2.438s1.095-2.437 2.443-2.437c1.344 0 2.437 1.088 2.437 2.437M436.715 203.552c0 1.35-1.092 2.438-2.436 2.438-1.35 0-2.444-1.088-2.444-2.438s1.094-2.437 2.443-2.437c1.343 0 2.435 1.088 2.435 2.437M426.14 203.552c0 1.35-1.092 2.438-2.437 2.438-1.35 0-2.44-1.088-2.44-2.438s1.09-2.437 2.44-2.437c1.344 0 2.437 1.088 2.437 2.437M415.565 203.552c0 1.35-1.093 2.438-2.437 2.438-1.35 0-2.44-1.088-2.44-2.438s1.092-2.437 2.44-2.437c1.345 0 2.437 1.088 2.437 2.437M404.992 203.552c0 1.35-1.093 2.438-2.438 2.438-1.35 0-2.44-1.088-2.44-2.438s1.093-2.437 2.44-2.437c1.345 0 2.438 1.088 2.438 2.437M426.14 194.43c0 1.35-1.092 2.438-2.437 2.438-1.35 0-2.44-1.087-2.44-2.437 0-1.348 1.09-2.437 2.44-2.437 1.344 0 2.437 1.09 2.437 2.438M415.565 194.43c0 1.35-1.093 2.438-2.437 2.438-1.35 0-2.44-1.087-2.44-2.437 0-1.348 1.092-2.437 2.44-2.437 1.345 0 2.437 1.09 2.437 2.438M404.992 194.43c0 1.35-1.093 2.438-2.438 2.438-1.35 0-2.44-1.087-2.44-2.437 0-1.348 1.093-2.437 2.44-2.437 1.345 0 2.438 1.09 2.438 2.438M426.14 185.31c0 1.348-1.092 2.436-2.437 2.436-1.35 0-2.44-1.088-2.44-2.436 0-1.35 1.09-2.437 2.44-2.437 1.344 0 2.437 1.087 2.437 2.437M415.565 185.31c0 1.348-1.093 2.436-2.437 2.436-1.35 0-2.44-1.088-2.44-2.436 0-1.35 1.092-2.437 2.44-2.437 1.345 0 2.437 1.087 2.437 2.437M404.992 185.31c0 1.348-1.093 2.436-2.438 2.436-1.35 0-2.44-1.088-2.44-2.436 0-1.35 1.093-2.437 2.44-2.437 1.345 0 2.438 1.087 2.438 2.437M426.14 176.188c0 1.35-1.092 2.438-2.437 2.438-1.35 0-2.44-1.088-2.44-2.438s1.09-2.436 2.44-2.436c1.344 0 2.437 1.087 2.437 2.436M415.565 176.188c0 1.35-1.093 2.438-2.437 2.438-1.35 0-2.44-1.088-2.44-2.438s1.092-2.436 2.44-2.436c1.345 0 2.437 1.087 2.437 2.436M404.992 176.188c0 1.35-1.093 2.438-2.438 2.438-1.35 0-2.44-1.088-2.44-2.438s1.093-2.436 2.44-2.436c1.345 0 2.438 1.087 2.438 2.436M468.438 167.068c0 1.348-1.093 2.436-2.438 2.436-1.35 0-2.442-1.088-2.442-2.436 0-1.35 1.094-2.438 2.442-2.438 1.345 0 2.438 1.09 2.438 2.438M457.864 167.068c0 1.348-1.093 2.436-2.438 2.436-1.35 0-2.44-1.088-2.44-2.436 0-1.35 1.092-2.438 2.44-2.438 1.345 0 2.438 1.09 2.438 2.438M447.29 167.068c0 1.348-1.092 2.436-2.437 2.436-1.35 0-2.443-1.088-2.443-2.436 0-1.35 1.095-2.438 2.443-2.438 1.344 0 2.437 1.09 2.437 2.438M436.715 167.068c0 1.348-1.092 2.436-2.436 2.436-1.35 0-2.444-1.088-2.444-2.436 0-1.35 1.094-2.438 2.443-2.438 1.343 0 2.435 1.09 2.435 2.438M426.14 167.068c0 1.348-1.092 2.436-2.437 2.436-1.35 0-2.44-1.088-2.44-2.436 0-1.35 1.09-2.438 2.44-2.438 1.344 0 2.437 1.09 2.437 2.438M415.565 167.068c0 1.348-1.093 2.436-2.437 2.436-1.35 0-2.44-1.088-2.44-2.436 0-1.35 1.092-2.438 2.44-2.438 1.345 0 2.437 1.09 2.437 2.438M404.992 167.068c0 1.348-1.093 2.436-2.438 2.436-1.35 0-2.44-1.088-2.44-2.436 0-1.35 1.093-2.438 2.44-2.438 1.345 0 2.438 1.09 2.438 2.438M468.438 157.947c0 1.35-1.093 2.437-2.438 2.437-1.35 0-2.442-1.087-2.442-2.437 0-1.35 1.094-2.437 2.442-2.437 1.345 0 2.438 1.09 2.438 2.437M457.864 157.947c0 1.35-1.093 2.437-2.438 2.437-1.35 0-2.44-1.087-2.44-2.437 0-1.35 1.092-2.437 2.44-2.437 1.345 0 2.438 1.09 2.438 2.437M447.29 157.947c0 1.35-1.092 2.437-2.437 2.437-1.35 0-2.443-1.087-2.443-2.437 0-1.35 1.095-2.437 2.443-2.437 1.344 0 2.437 1.09 2.437 2.437M436.715 157.947c0 1.35-1.092 2.437-2.436 2.437-1.35 0-2.444-1.087-2.444-2.437 0-1.35 1.094-2.437 2.443-2.437 1.343 0 2.435 1.09 2.435 2.437M426.14 157.947c0 1.35-1.092 2.437-2.437 2.437-1.35 0-2.44-1.087-2.44-2.437 0-1.35 1.09-2.437 2.44-2.437 1.344 0 2.437 1.09 2.437 2.437M415.565 157.947c0 1.35-1.093 2.437-2.437 2.437-1.35 0-2.44-1.087-2.44-2.437 0-1.35 1.092-2.437 2.44-2.437 1.345 0 2.437 1.09 2.437 2.437M404.992 157.947c0 1.35-1.093 2.437-2.438 2.437-1.35 0-2.44-1.087-2.44-2.437 0-1.35 1.093-2.437 2.44-2.437 1.345 0 2.438 1.09 2.438 2.437M468.438 148.825c0 1.35-1.093 2.436-2.438 2.436-1.35 0-2.442-1.085-2.442-2.435s1.094-2.437 2.442-2.437c1.345 0 2.438 1.088 2.438 2.437M457.864 148.825c0 1.35-1.093 2.436-2.438 2.436-1.35 0-2.44-1.085-2.44-2.435s1.092-2.437 2.44-2.437c1.345 0 2.438 1.088 2.438 2.437M447.29 148.825c0 1.35-1.092 2.436-2.437 2.436-1.35 0-2.443-1.085-2.443-2.435s1.095-2.437 2.443-2.437c1.344 0 2.437 1.088 2.437 2.437M436.715 148.825c0 1.35-1.092 2.436-2.436 2.436-1.35 0-2.444-1.085-2.444-2.435s1.094-2.437 2.443-2.437c1.343 0 2.435 1.088 2.435 2.437M426.14 148.825c0 1.35-1.092 2.436-2.437 2.436-1.35 0-2.44-1.085-2.44-2.435s1.09-2.437 2.44-2.437c1.344 0 2.437 1.088 2.437 2.437M415.565 148.825c0 1.35-1.093 2.436-2.437 2.436-1.35 0-2.44-1.085-2.44-2.435s1.092-2.437 2.44-2.437c1.345 0 2.437 1.088 2.437 2.437M404.992 148.825c0 1.35-1.093 2.436-2.438 2.436-1.35 0-2.44-1.085-2.44-2.435s1.093-2.437 2.44-2.437c1.345 0 2.438 1.088 2.438 2.437M728.333 258.518c0 1.348-1.09 2.436-2.436 2.436-1.35 0-2.442-1.088-2.442-2.436 0-1.35 1.093-2.438 2.442-2.438 1.346 0 2.436 1.087 2.436 2.438M717.56 258.518c0 1.348-1.093 2.436-2.44 2.436-1.35 0-2.44-1.088-2.44-2.436 0-1.35 1.093-2.438 2.44-2.438s2.44 1.087 2.44 2.438M706.786 258.518c0 1.348-1.094 2.436-2.438 2.436-1.35 0-2.44-1.088-2.44-2.436 0-1.35 1.092-2.438 2.44-2.438 1.344 0 2.438 1.087 2.438 2.438M652.91 258.518c0 1.348-1.093 2.436-2.438 2.436-1.348 0-2.44-1.088-2.44-2.436 0-1.35 1.094-2.438 2.44-2.438 1.345 0 2.438 1.087 2.438 2.438M642.136 258.518c0 1.348-1.094 2.436-2.438 2.436-1.35 0-2.44-1.088-2.44-2.436 0-1.35 1.093-2.438 2.44-2.438 1.344 0 2.438 1.087 2.438 2.438M631.36 258.518c0 1.348-1.095 2.436-2.44 2.436-1.347 0-2.438-1.088-2.438-2.436 0-1.35 1.093-2.438 2.44-2.438 1.345 0 2.437 1.087 2.437 2.438M728.333 249.375c0 1.35-1.09 2.438-2.436 2.438-1.35 0-2.442-1.088-2.442-2.438s1.093-2.436 2.442-2.436c1.346 0 2.436 1.085 2.436 2.435M717.56 249.375c0 1.35-1.093 2.438-2.44 2.438-1.35 0-2.44-1.088-2.44-2.438s1.093-2.436 2.44-2.436 2.44 1.085 2.44 2.435M706.786 249.375c0 1.35-1.094 2.438-2.438 2.438-1.35 0-2.44-1.088-2.44-2.438s1.092-2.436 2.44-2.436c1.344 0 2.438 1.085 2.438 2.435M696.012 249.375c0 1.35-1.096 2.438-2.438 2.438-1.35 0-2.44-1.088-2.44-2.438s1.09-2.436 2.44-2.436c1.342 0 2.438 1.085 2.438 2.435M652.91 249.375c0 1.35-1.093 2.438-2.438 2.438-1.348 0-2.44-1.088-2.44-2.438s1.094-2.436 2.44-2.436c1.345 0 2.438 1.085 2.438 2.435M642.136 249.375c0 1.35-1.094 2.438-2.438 2.438-1.35 0-2.44-1.088-2.44-2.438s1.093-2.436 2.44-2.436c1.344 0 2.438 1.085 2.438 2.435M631.36 249.375c0 1.35-1.095 2.438-2.44 2.438-1.347 0-2.438-1.088-2.438-2.438s1.093-2.436 2.44-2.436c1.345 0 2.437 1.085 2.437 2.435M728.333 240.234c0 1.35-1.09 2.437-2.436 2.437-1.35 0-2.442-1.087-2.442-2.436 0-1.35 1.093-2.438 2.442-2.438 1.346 0 2.436 1.09 2.436 2.438M717.56 240.234c0 1.35-1.093 2.437-2.44 2.437-1.35 0-2.44-1.087-2.44-2.436 0-1.35 1.093-2.438 2.44-2.438s2.44 1.09 2.44 2.438M706.786 240.234c0 1.35-1.094 2.437-2.438 2.437-1.35 0-2.44-1.087-2.44-2.436 0-1.35 1.092-2.438 2.44-2.438 1.344 0 2.438 1.09 2.438 2.438M696.012 240.234c0 1.35-1.096 2.437-2.438 2.437-1.35 0-2.44-1.087-2.44-2.436 0-1.35 1.09-2.438 2.44-2.438 1.342 0 2.438 1.09 2.438 2.438M652.91 240.234c0 1.35-1.093 2.437-2.438 2.437-1.348 0-2.44-1.087-2.44-2.436 0-1.35 1.094-2.438 2.44-2.438 1.345 0 2.438 1.09 2.438 2.438M642.136 240.234c0 1.35-1.094 2.437-2.438 2.437-1.35 0-2.44-1.087-2.44-2.436 0-1.35 1.093-2.438 2.44-2.438 1.344 0 2.438 1.09 2.438 2.438M631.36 240.234c0 1.35-1.095 2.437-2.44 2.437-1.347 0-2.438-1.087-2.438-2.436 0-1.35 1.093-2.438 2.44-2.438 1.345 0 2.437 1.09 2.437 2.438M728.333 231.093c0 1.35-1.09 2.438-2.436 2.438-1.35 0-2.442-1.09-2.442-2.437 0-1.35 1.093-2.436 2.442-2.436 1.346 0 2.436 1.086 2.436 2.436M717.56 231.093c0 1.35-1.093 2.438-2.44 2.438-1.35 0-2.44-1.09-2.44-2.437 0-1.35 1.093-2.436 2.44-2.436s2.44 1.086 2.44 2.436M706.786 231.093c0 1.35-1.094 2.438-2.438 2.438-1.35 0-2.44-1.09-2.44-2.437 0-1.35 1.092-2.436 2.44-2.436 1.344 0 2.438 1.086 2.438 2.436M696.012 231.093c0 1.35-1.096 2.438-2.438 2.438-1.35 0-2.44-1.09-2.44-2.437 0-1.35 1.09-2.436 2.44-2.436 1.342 0 2.438 1.086 2.438 2.436M685.233 231.093c0 1.35-1.093 2.438-2.437 2.438-1.35 0-2.443-1.09-2.443-2.437 0-1.35 1.095-2.436 2.443-2.436 1.346 0 2.437 1.086 2.437 2.436M652.91 231.093c0 1.35-1.093 2.438-2.438 2.438-1.348 0-2.44-1.09-2.44-2.437 0-1.35 1.094-2.436 2.44-2.436 1.345 0 2.438 1.086 2.438 2.436M642.136 231.093c0 1.35-1.094 2.438-2.438 2.438-1.35 0-2.44-1.09-2.44-2.437 0-1.35 1.093-2.436 2.44-2.436 1.344 0 2.438 1.086 2.438 2.436M631.36 231.093c0 1.35-1.095 2.438-2.44 2.438-1.347 0-2.438-1.09-2.438-2.437 0-1.35 1.093-2.436 2.44-2.436 1.345 0 2.437 1.086 2.437 2.436M728.333 221.954c0 1.35-1.09 2.437-2.436 2.437-1.35 0-2.442-1.085-2.442-2.436s1.093-2.437 2.442-2.437c1.346 0 2.436 1.087 2.436 2.437M717.56 221.954c0 1.35-1.093 2.437-2.44 2.437-1.35 0-2.44-1.085-2.44-2.436s1.093-2.437 2.44-2.437 2.44 1.087 2.44 2.437M706.786 221.954c0 1.35-1.094 2.437-2.438 2.437-1.35 0-2.44-1.085-2.44-2.436s1.092-2.437 2.44-2.437c1.344 0 2.438 1.087 2.438 2.437M696.012 221.954c0 1.35-1.096 2.437-2.438 2.437-1.35 0-2.44-1.085-2.44-2.436s1.09-2.437 2.44-2.437c1.342 0 2.438 1.087 2.438 2.437M685.233 221.954c0 1.35-1.093 2.437-2.437 2.437-1.35 0-2.443-1.085-2.443-2.436s1.095-2.437 2.443-2.437c1.346 0 2.437 1.087 2.437 2.437M652.91 221.954c0 1.35-1.093 2.437-2.438 2.437-1.348 0-2.44-1.085-2.44-2.436s1.094-2.437 2.44-2.437c1.345 0 2.438 1.087 2.438 2.437M642.136 221.954c0 1.35-1.094 2.437-2.438 2.437-1.35 0-2.44-1.085-2.44-2.436s1.093-2.437 2.44-2.437c1.344 0 2.438 1.087 2.438 2.437M631.36 221.954c0 1.35-1.095 2.437-2.44 2.437-1.347 0-2.438-1.085-2.438-2.436s1.093-2.437 2.44-2.437c1.345 0 2.437 1.087 2.437 2.437M728.333 212.812c0 1.35-1.09 2.438-2.436 2.438-1.35 0-2.442-1.088-2.442-2.438 0-1.352 1.093-2.438 2.442-2.438 1.346 0 2.436 1.088 2.436 2.438M717.56 212.812c0 1.35-1.093 2.438-2.44 2.438-1.35 0-2.44-1.088-2.44-2.438 0-1.352 1.093-2.438 2.44-2.438s2.44 1.088 2.44 2.438M706.786 212.812c0 1.35-1.094 2.438-2.438 2.438-1.35 0-2.44-1.088-2.44-2.438 0-1.352 1.092-2.438 2.44-2.438 1.344 0 2.438 1.088 2.438 2.438M696.012 212.812c0 1.35-1.096 2.438-2.438 2.438-1.35 0-2.44-1.088-2.44-2.438 0-1.352 1.09-2.438 2.44-2.438 1.342 0 2.438 1.088 2.438 2.438M685.233 212.812c0 1.35-1.093 2.438-2.437 2.438-1.35 0-2.443-1.088-2.443-2.438 0-1.352 1.095-2.438 2.443-2.438 1.346 0 2.437 1.088 2.437 2.438M674.46 212.812c0 1.35-1.093 2.438-2.44 2.438-1.35 0-2.44-1.088-2.44-2.438 0-1.352 1.093-2.438 2.44-2.438s2.44 1.088 2.44 2.438M652.91 212.812c0 1.35-1.093 2.438-2.438 2.438-1.348 0-2.44-1.088-2.44-2.438 0-1.352 1.094-2.438 2.44-2.438 1.345 0 2.438 1.088 2.438 2.438M642.136 212.812c0 1.35-1.094 2.438-2.438 2.438-1.35 0-2.44-1.088-2.44-2.438 0-1.352 1.093-2.438 2.44-2.438 1.344 0 2.438 1.088 2.438 2.438M631.36 212.812c0 1.35-1.095 2.438-2.44 2.438-1.347 0-2.438-1.088-2.438-2.438 0-1.352 1.093-2.438 2.44-2.438 1.345 0 2.437 1.088 2.437 2.438M728.333 203.67c0 1.35-1.09 2.438-2.436 2.438-1.35 0-2.442-1.088-2.442-2.438 0-1.348 1.093-2.435 2.442-2.435 1.346 0 2.436 1.088 2.436 2.435M717.56 203.67c0 1.35-1.093 2.438-2.44 2.438-1.35 0-2.44-1.088-2.44-2.438 0-1.348 1.093-2.435 2.44-2.435s2.44 1.088 2.44 2.435M706.786 203.67c0 1.35-1.094 2.438-2.438 2.438-1.35 0-2.44-1.088-2.44-2.438 0-1.348 1.092-2.435 2.44-2.435 1.344 0 2.438 1.088 2.438 2.435M696.012 203.67c0 1.35-1.096 2.438-2.438 2.438-1.35 0-2.44-1.088-2.44-2.438 0-1.348 1.09-2.435 2.44-2.435 1.342 0 2.438 1.088 2.438 2.435M685.233 203.67c0 1.35-1.093 2.438-2.437 2.438-1.35 0-2.443-1.088-2.443-2.438 0-1.348 1.095-2.435 2.443-2.435 1.346 0 2.437 1.088 2.437 2.435M674.46 203.67c0 1.35-1.093 2.438-2.44 2.438-1.35 0-2.44-1.088-2.44-2.438 0-1.348 1.093-2.435 2.44-2.435s2.44 1.088 2.44 2.435M663.683 203.67c0 1.35-1.092 2.438-2.436 2.438-1.35 0-2.442-1.088-2.442-2.438 0-1.348 1.094-2.435 2.442-2.435 1.344 0 2.436 1.088 2.436 2.435M652.91 203.67c0 1.35-1.093 2.438-2.438 2.438-1.348 0-2.44-1.088-2.44-2.438 0-1.348 1.094-2.435 2.44-2.435 1.345 0 2.438 1.088 2.438 2.435M642.136 203.67c0 1.35-1.094 2.438-2.438 2.438-1.35 0-2.44-1.088-2.44-2.438 0-1.348 1.093-2.435 2.44-2.435 1.344 0 2.438 1.088 2.438 2.435M631.36 203.67c0 1.35-1.095 2.438-2.44 2.438-1.347 0-2.438-1.088-2.438-2.438 0-1.348 1.093-2.435 2.44-2.435 1.345 0 2.437 1.088 2.437 2.435M728.333 194.53c0 1.35-1.09 2.438-2.436 2.438-1.35 0-2.442-1.088-2.442-2.438s1.093-2.436 2.442-2.436c1.346 0 2.436 1.087 2.436 2.436M717.56 194.53c0 1.35-1.093 2.438-2.44 2.438-1.35 0-2.44-1.088-2.44-2.438s1.093-2.436 2.44-2.436 2.44 1.087 2.44 2.436M706.786 194.53c0 1.35-1.094 2.438-2.438 2.438-1.35 0-2.44-1.088-2.44-2.438s1.092-2.436 2.44-2.436c1.344 0 2.438 1.087 2.438 2.436M685.233 194.53c0 1.35-1.093 2.438-2.437 2.438-1.35 0-2.443-1.088-2.443-2.438s1.095-2.436 2.443-2.436c1.346 0 2.437 1.087 2.437 2.436M674.46 194.53c0 1.35-1.093 2.438-2.44 2.438-1.35 0-2.44-1.088-2.44-2.438s1.093-2.436 2.44-2.436 2.44 1.087 2.44 2.436M663.683 194.53c0 1.35-1.092 2.438-2.436 2.438-1.35 0-2.442-1.088-2.442-2.438s1.094-2.436 2.442-2.436c1.344 0 2.436 1.087 2.436 2.436M652.91 194.53c0 1.35-1.093 2.438-2.438 2.438-1.348 0-2.44-1.088-2.44-2.438s1.094-2.436 2.44-2.436c1.345 0 2.438 1.087 2.438 2.436M642.136 194.53c0 1.35-1.094 2.438-2.438 2.438-1.35 0-2.44-1.088-2.44-2.438s1.093-2.436 2.44-2.436c1.344 0 2.438 1.087 2.438 2.436M631.36 194.53c0 1.35-1.095 2.438-2.44 2.438-1.347 0-2.438-1.088-2.438-2.438s1.093-2.436 2.44-2.436c1.345 0 2.437 1.087 2.437 2.436M728.333 185.39c0 1.35-1.09 2.436-2.436 2.436-1.35 0-2.442-1.087-2.442-2.436 0-1.35 1.093-2.437 2.442-2.437 1.346 0 2.436 1.087 2.436 2.437M717.56 185.39c0 1.35-1.093 2.436-2.44 2.436-1.35 0-2.44-1.087-2.44-2.436 0-1.35 1.093-2.437 2.44-2.437s2.44 1.087 2.44 2.437M706.786 185.39c0 1.35-1.094 2.436-2.438 2.436-1.35 0-2.44-1.087-2.44-2.436 0-1.35 1.092-2.437 2.44-2.437 1.344 0 2.438 1.087 2.438 2.437M674.46 185.39c0 1.35-1.093 2.436-2.44 2.436-1.35 0-2.44-1.087-2.44-2.436 0-1.35 1.093-2.437 2.44-2.437s2.44 1.087 2.44 2.437M663.683 185.39c0 1.35-1.092 2.436-2.436 2.436-1.35 0-2.442-1.087-2.442-2.436 0-1.35 1.094-2.437 2.442-2.437 1.344 0 2.436 1.087 2.436 2.437M652.91 185.39c0 1.35-1.093 2.436-2.438 2.436-1.348 0-2.44-1.087-2.44-2.436 0-1.35 1.094-2.437 2.44-2.437 1.345 0 2.438 1.087 2.438 2.437M642.136 185.39c0 1.35-1.094 2.436-2.438 2.436-1.35 0-2.44-1.087-2.44-2.436 0-1.35 1.093-2.437 2.44-2.437 1.344 0 2.438 1.087 2.438 2.437M631.36 185.39c0 1.35-1.095 2.436-2.44 2.436-1.347 0-2.438-1.087-2.438-2.436 0-1.35 1.093-2.437 2.44-2.437 1.345 0 2.437 1.087 2.437 2.437M728.333 176.25c0 1.348-1.09 2.435-2.436 2.435-1.35 0-2.442-1.087-2.442-2.436 0-1.35 1.093-2.438 2.442-2.438 1.346 0 2.436 1.087 2.436 2.437M717.56 176.25c0 1.348-1.093 2.435-2.44 2.435-1.35 0-2.44-1.087-2.44-2.436 0-1.35 1.093-2.438 2.44-2.438s2.44 1.087 2.44 2.437M706.786 176.25c0 1.348-1.094 2.435-2.438 2.435-1.35 0-2.44-1.087-2.44-2.436 0-1.35 1.092-2.438 2.44-2.438 1.344 0 2.438 1.087 2.438 2.437M674.46 176.25c0 1.348-1.093 2.435-2.44 2.435-1.35 0-2.44-1.087-2.44-2.436 0-1.35 1.093-2.438 2.44-2.438s2.44 1.087 2.44 2.437M663.683 176.25c0 1.348-1.092 2.435-2.436 2.435-1.35 0-2.442-1.087-2.442-2.436 0-1.35 1.094-2.438 2.442-2.438 1.344 0 2.436 1.087 2.436 2.437M652.91 176.25c0 1.348-1.093 2.435-2.438 2.435-1.348 0-2.44-1.087-2.44-2.436 0-1.35 1.094-2.438 2.44-2.438 1.345 0 2.438 1.087 2.438 2.437M642.136 176.25c0 1.348-1.094 2.435-2.438 2.435-1.35 0-2.44-1.087-2.44-2.436 0-1.35 1.093-2.438 2.44-2.438 1.344 0 2.438 1.087 2.438 2.437M631.36 176.25c0 1.348-1.095 2.435-2.44 2.435-1.347 0-2.438-1.087-2.438-2.436 0-1.35 1.093-2.438 2.44-2.438 1.345 0 2.437 1.087 2.437 2.437M728.333 167.108c0 1.35-1.09 2.437-2.436 2.437-1.35 0-2.442-1.087-2.442-2.437 0-1.35 1.093-2.437 2.442-2.437 1.346 0 2.436 1.09 2.436 2.438M717.56 167.108c0 1.35-1.093 2.437-2.44 2.437-1.35 0-2.44-1.087-2.44-2.437 0-1.35 1.093-2.437 2.44-2.437s2.44 1.09 2.44 2.438M706.786 167.108c0 1.35-1.094 2.437-2.438 2.437-1.35 0-2.44-1.087-2.44-2.437 0-1.35 1.092-2.437 2.44-2.437 1.344 0 2.438 1.09 2.438 2.438M663.683 167.108c0 1.35-1.092 2.437-2.436 2.437-1.35 0-2.442-1.087-2.442-2.437 0-1.35 1.094-2.437 2.442-2.437 1.344 0 2.436 1.09 2.436 2.438M652.91 167.108c0 1.35-1.093 2.437-2.438 2.437-1.348 0-2.44-1.087-2.44-2.437 0-1.35 1.094-2.437 2.44-2.437 1.345 0 2.438 1.09 2.438 2.438M642.136 167.108c0 1.35-1.094 2.437-2.438 2.437-1.35 0-2.44-1.087-2.44-2.437 0-1.35 1.093-2.437 2.44-2.437 1.344 0 2.438 1.09 2.438 2.438M631.36 167.108c0 1.35-1.095 2.437-2.44 2.437-1.347 0-2.438-1.087-2.438-2.437 0-1.35 1.093-2.437 2.44-2.437 1.345 0 2.437 1.09 2.437 2.438M728.333 157.966c0 1.35-1.09 2.437-2.436 2.437-1.35 0-2.442-1.088-2.442-2.437 0-1.35 1.093-2.438 2.442-2.438 1.346 0 2.436 1.09 2.436 2.438M717.56 157.966c0 1.35-1.093 2.437-2.44 2.437-1.35 0-2.44-1.088-2.44-2.437 0-1.35 1.093-2.438 2.44-2.438s2.44 1.09 2.44 2.438M706.786 157.966c0 1.35-1.094 2.437-2.438 2.437-1.35 0-2.44-1.088-2.44-2.437 0-1.35 1.092-2.438 2.44-2.438 1.344 0 2.438 1.09 2.438 2.438M663.683 157.966c0 1.35-1.092 2.437-2.436 2.437-1.35 0-2.442-1.088-2.442-2.437 0-1.35 1.094-2.438 2.442-2.438 1.344 0 2.436 1.09 2.436 2.438M652.91 157.966c0 1.35-1.093 2.437-2.438 2.437-1.348 0-2.44-1.088-2.44-2.437 0-1.35 1.094-2.438 2.44-2.438 1.345 0 2.438 1.09 2.438 2.438M642.136 157.966c0 1.35-1.094 2.437-2.438 2.437-1.35 0-2.44-1.088-2.44-2.437 0-1.35 1.093-2.438 2.44-2.438 1.344 0 2.438 1.09 2.438 2.438M631.36 157.966c0 1.35-1.095 2.437-2.44 2.437-1.347 0-2.438-1.088-2.438-2.437 0-1.35 1.093-2.438 2.44-2.438 1.345 0 2.437 1.09 2.437 2.438M728.333 148.825c0 1.35-1.09 2.436-2.436 2.436-1.35 0-2.442-1.085-2.442-2.435s1.093-2.437 2.442-2.437c1.346 0 2.436 1.088 2.436 2.437M717.56 148.825c0 1.35-1.093 2.436-2.44 2.436-1.35 0-2.44-1.085-2.44-2.435s1.093-2.437 2.44-2.437 2.44 1.088 2.44 2.437M706.786 148.825c0 1.35-1.094 2.436-2.438 2.436-1.35 0-2.44-1.085-2.44-2.435s1.092-2.437 2.44-2.437c1.344 0 2.438 1.088 2.438 2.437M652.91 148.825c0 1.35-1.093 2.436-2.438 2.436-1.348 0-2.44-1.085-2.44-2.435s1.094-2.437 2.44-2.437c1.345 0 2.438 1.088 2.438 2.437M642.136 148.825c0 1.35-1.094 2.436-2.438 2.436-1.35 0-2.44-1.085-2.44-2.435s1.093-2.437 2.44-2.437c1.344 0 2.438 1.088 2.438 2.437M631.36 148.825c0 1.35-1.095 2.436-2.44 2.436-1.347 0-2.438-1.085-2.438-2.435s1.093-2.437 2.44-2.437c1.345 0 2.437 1.088 2.437 2.437M573.017 258.234c0 1.35-1.093 2.437-2.437 2.437-1.35 0-2.44-1.085-2.44-2.436 0-1.35 1.09-2.436 2.44-2.436 1.344.002 2.437 1.088 2.437 2.436M561.64 258.234c0 1.35-1.092 2.437-2.435 2.437-1.35 0-2.442-1.085-2.442-2.436 0-1.35 1.094-2.436 2.442-2.436 1.343.002 2.436 1.088 2.436 2.436M550.266 258.234c0 1.35-1.093 2.437-2.438 2.437-1.35 0-2.442-1.085-2.442-2.436 0-1.35 1.093-2.436 2.442-2.436 1.344.002 2.438 1.088 2.438 2.436M538.888 258.234c0 1.35-1.092 2.437-2.437 2.437-1.35 0-2.44-1.085-2.44-2.436 0-1.35 1.092-2.436 2.44-2.436 1.346.002 2.438 1.088 2.438 2.436M527.51 258.234c0 1.35-1.09 2.437-2.437 2.437-1.35 0-2.44-1.085-2.44-2.436 0-1.35 1.092-2.436 2.44-2.436 1.346.002 2.437 1.088 2.437 2.436M584.394 249.115c0 1.352-1.093 2.436-2.438 2.436-1.35 0-2.44-1.083-2.44-2.435 0-1.348 1.092-2.436 2.44-2.436 1.345 0 2.438 1.088 2.438 2.435M573.017 249.115c0 1.352-1.093 2.436-2.437 2.436-1.35 0-2.44-1.083-2.44-2.435 0-1.348 1.09-2.436 2.44-2.436 1.344 0 2.437 1.088 2.437 2.435M561.64 249.115c0 1.352-1.092 2.436-2.435 2.436-1.35 0-2.442-1.083-2.442-2.435 0-1.348 1.094-2.436 2.442-2.436 1.343 0 2.436 1.088 2.436 2.435M550.266 249.115c0 1.352-1.093 2.436-2.438 2.436-1.35 0-2.442-1.083-2.442-2.435 0-1.348 1.093-2.436 2.442-2.436 1.344 0 2.438 1.088 2.438 2.435M538.888 249.115c0 1.352-1.092 2.436-2.437 2.436-1.35 0-2.44-1.083-2.44-2.435 0-1.348 1.092-2.436 2.44-2.436 1.346 0 2.438 1.088 2.438 2.435M527.51 249.115c0 1.352-1.09 2.436-2.437 2.436-1.35 0-2.44-1.083-2.44-2.435 0-1.348 1.092-2.436 2.44-2.436 1.346 0 2.437 1.088 2.437 2.435M516.135 249.115c0 1.352-1.093 2.436-2.437 2.436-1.35 0-2.442-1.083-2.442-2.435 0-1.348 1.093-2.436 2.442-2.436 1.344 0 2.437 1.088 2.437 2.435M584.394 239.993c0 1.35-1.093 2.438-2.438 2.438-1.35 0-2.44-1.09-2.44-2.437s1.092-2.437 2.44-2.437c1.345.003 2.438 1.09 2.438 2.437M573.017 239.993c0 1.35-1.093 2.438-2.437 2.438-1.35 0-2.44-1.09-2.44-2.437s1.09-2.437 2.44-2.437c1.344.003 2.437 1.09 2.437 2.437M561.64 239.993c0 1.35-1.092 2.438-2.435 2.438-1.35 0-2.442-1.09-2.442-2.437s1.094-2.437 2.442-2.437c1.343.003 2.436 1.09 2.436 2.437M550.266 239.993c0 1.35-1.093 2.438-2.438 2.438-1.35 0-2.442-1.09-2.442-2.437s1.093-2.437 2.442-2.437c1.344.003 2.438 1.09 2.438 2.437M538.888 239.993c0 1.35-1.092 2.438-2.437 2.438-1.35 0-2.44-1.09-2.44-2.437s1.092-2.437 2.44-2.437c1.346.003 2.438 1.09 2.438 2.437M527.51 239.993c0 1.35-1.09 2.438-2.437 2.438-1.35 0-2.44-1.09-2.44-2.437s1.092-2.437 2.44-2.437c1.346.003 2.437 1.09 2.437 2.437M516.135 239.993c0 1.35-1.093 2.438-2.437 2.438-1.35 0-2.442-1.09-2.442-2.437s1.093-2.437 2.442-2.437c1.344.003 2.437 1.09 2.437 2.437M595.77 230.874c0 1.35-1.093 2.437-2.44 2.437-1.35 0-2.44-1.087-2.44-2.436s1.093-2.437 2.44-2.437 2.44 1.088 2.44 2.437M584.394 230.874c0 1.35-1.093 2.437-2.438 2.437-1.35 0-2.44-1.087-2.44-2.436s1.092-2.437 2.44-2.437c1.345 0 2.438 1.088 2.438 2.437M573.017 230.874c0 1.35-1.093 2.437-2.437 2.437-1.35 0-2.44-1.087-2.44-2.436s1.09-2.437 2.44-2.437c1.344 0 2.437 1.088 2.437 2.437M527.51 230.874c0 1.35-1.09 2.437-2.437 2.437-1.35 0-2.44-1.087-2.44-2.436s1.092-2.437 2.44-2.437c1.346 0 2.437 1.088 2.437 2.437M516.135 230.874c0 1.35-1.093 2.437-2.437 2.437-1.35 0-2.442-1.087-2.442-2.436s1.093-2.437 2.442-2.437c1.344 0 2.437 1.088 2.437 2.437M504.76 230.874c0 1.35-1.094 2.437-2.438 2.437-1.35 0-2.442-1.087-2.442-2.436s1.092-2.437 2.442-2.437c1.345 0 2.437 1.088 2.437 2.437M595.77 221.752c0 1.352-1.093 2.438-2.44 2.438-1.35 0-2.44-1.088-2.44-2.438 0-1.348 1.093-2.436 2.44-2.436s2.44 1.088 2.44 2.436M584.394 221.752c0 1.352-1.093 2.438-2.438 2.438-1.35 0-2.44-1.088-2.44-2.438 0-1.348 1.092-2.436 2.44-2.436 1.345 0 2.438 1.088 2.438 2.436M573.017 221.752c0 1.352-1.093 2.438-2.437 2.438-1.35 0-2.44-1.088-2.44-2.438 0-1.348 1.09-2.436 2.44-2.436 1.344 0 2.437 1.088 2.437 2.436M527.51 221.752c0 1.352-1.09 2.438-2.437 2.438-1.35 0-2.44-1.088-2.44-2.438 0-1.348 1.092-2.436 2.44-2.436 1.346 0 2.437 1.088 2.437 2.436M516.135 221.752c0 1.352-1.093 2.438-2.437 2.438-1.35 0-2.442-1.088-2.442-2.438 0-1.348 1.093-2.436 2.442-2.436 1.344 0 2.437 1.088 2.437 2.436M504.76 221.752c0 1.352-1.094 2.438-2.438 2.438-1.35 0-2.442-1.088-2.442-2.438 0-1.348 1.092-2.436 2.442-2.436 1.345 0 2.437 1.088 2.437 2.436M595.77 212.633c0 1.35-1.093 2.438-2.44 2.438-1.35 0-2.44-1.087-2.44-2.437 0-1.35 1.093-2.436 2.44-2.436s2.44 1.087 2.44 2.436M584.394 212.633c0 1.35-1.093 2.438-2.438 2.438-1.35 0-2.44-1.087-2.44-2.437 0-1.35 1.092-2.436 2.44-2.436 1.345 0 2.438 1.087 2.438 2.436M573.017 212.633c0 1.35-1.093 2.438-2.437 2.438-1.35 0-2.44-1.087-2.44-2.437 0-1.35 1.09-2.436 2.44-2.436 1.344 0 2.437 1.087 2.437 2.436M527.51 212.633c0 1.35-1.09 2.438-2.437 2.438-1.35 0-2.44-1.087-2.44-2.437 0-1.35 1.092-2.436 2.44-2.436 1.346 0 2.437 1.087 2.437 2.436M516.135 212.633c0 1.35-1.093 2.438-2.437 2.438-1.35 0-2.442-1.087-2.442-2.437 0-1.35 1.093-2.436 2.442-2.436 1.344 0 2.437 1.087 2.437 2.436M504.76 212.633c0 1.35-1.094 2.438-2.438 2.438-1.35 0-2.442-1.087-2.442-2.437 0-1.35 1.092-2.436 2.442-2.436 1.345 0 2.437 1.087 2.437 2.436M595.77 203.512c0 1.35-1.093 2.437-2.44 2.437-1.35 0-2.44-1.09-2.44-2.438 0-1.35 1.093-2.437 2.44-2.437s2.44 1.088 2.44 2.437M584.394 203.512c0 1.35-1.093 2.437-2.438 2.437-1.35 0-2.44-1.09-2.44-2.438 0-1.35 1.092-2.437 2.44-2.437 1.345 0 2.438 1.088 2.438 2.437M573.017 203.512c0 1.35-1.093 2.437-2.437 2.437-1.35 0-2.44-1.09-2.44-2.438 0-1.35 1.09-2.437 2.44-2.437 1.344 0 2.437 1.088 2.437 2.437M527.51 203.512c0 1.35-1.09 2.437-2.437 2.437-1.35 0-2.44-1.09-2.44-2.438 0-1.35 1.092-2.437 2.44-2.437 1.346 0 2.437 1.088 2.437 2.437M516.135 203.512c0 1.35-1.093 2.437-2.437 2.437-1.35 0-2.442-1.09-2.442-2.438 0-1.35 1.093-2.437 2.442-2.437 1.344 0 2.437 1.088 2.437 2.437M504.76 203.512c0 1.35-1.094 2.437-2.438 2.437-1.35 0-2.442-1.09-2.442-2.438 0-1.35 1.092-2.437 2.442-2.437 1.345 0 2.437 1.088 2.437 2.437M595.77 194.392c0 1.35-1.093 2.437-2.44 2.437-1.35 0-2.44-1.09-2.44-2.438s1.093-2.438 2.44-2.438 2.44 1.088 2.44 2.438M584.394 194.392c0 1.35-1.093 2.437-2.438 2.437-1.35 0-2.44-1.09-2.44-2.438s1.092-2.438 2.44-2.438c1.345 0 2.438 1.088 2.438 2.438M573.017 194.392c0 1.35-1.093 2.437-2.437 2.437-1.35 0-2.44-1.09-2.44-2.438s1.09-2.438 2.44-2.438c1.344 0 2.437 1.088 2.437 2.438M527.51 194.392c0 1.35-1.09 2.437-2.437 2.437-1.35 0-2.44-1.09-2.44-2.438s1.092-2.438 2.44-2.438c1.346 0 2.437 1.088 2.437 2.438M516.135 194.392c0 1.35-1.093 2.437-2.437 2.437-1.35 0-2.442-1.09-2.442-2.438s1.093-2.438 2.442-2.438c1.344 0 2.437 1.088 2.437 2.438M504.76 194.392c0 1.35-1.094 2.437-2.438 2.437-1.35 0-2.442-1.09-2.442-2.438s1.092-2.438 2.442-2.438c1.345 0 2.437 1.088 2.437 2.438M595.77 185.27c0 1.35-1.093 2.437-2.44 2.437-1.35 0-2.44-1.087-2.44-2.437s1.093-2.436 2.44-2.436 2.44 1.086 2.44 2.436M584.394 185.27c0 1.35-1.093 2.437-2.438 2.437-1.35 0-2.44-1.087-2.44-2.437s1.092-2.436 2.44-2.436c1.345 0 2.438 1.086 2.438 2.436M573.017 185.27c0 1.35-1.093 2.437-2.437 2.437-1.35 0-2.44-1.087-2.44-2.437s1.09-2.436 2.44-2.436c1.344 0 2.437 1.086 2.437 2.436M527.51 185.27c0 1.35-1.09 2.437-2.437 2.437-1.35 0-2.44-1.087-2.44-2.437s1.092-2.436 2.44-2.436c1.346 0 2.437 1.086 2.437 2.436M516.135 185.27c0 1.35-1.093 2.437-2.437 2.437-1.35 0-2.442-1.087-2.442-2.437s1.093-2.436 2.442-2.436c1.344 0 2.437 1.086 2.437 2.436M504.76 185.27c0 1.35-1.094 2.437-2.438 2.437-1.35 0-2.442-1.087-2.442-2.437s1.092-2.436 2.442-2.436c1.345 0 2.437 1.086 2.437 2.436M595.77 176.15c0 1.35-1.093 2.436-2.44 2.436-1.35 0-2.44-1.087-2.44-2.437 0-1.35 1.093-2.437 2.44-2.437s2.44 1.087 2.44 2.436M584.394 176.15c0 1.35-1.093 2.436-2.438 2.436-1.35 0-2.44-1.087-2.44-2.437 0-1.35 1.092-2.437 2.44-2.437 1.345 0 2.438 1.087 2.438 2.436M573.017 176.15c0 1.35-1.093 2.436-2.437 2.436-1.35 0-2.44-1.087-2.44-2.437 0-1.35 1.09-2.437 2.44-2.437 1.344 0 2.437 1.087 2.437 2.436M527.51 176.15c0 1.35-1.09 2.436-2.437 2.436-1.35 0-2.44-1.087-2.44-2.437 0-1.35 1.092-2.437 2.44-2.437 1.346 0 2.437 1.087 2.437 2.436M516.135 176.15c0 1.35-1.093 2.436-2.437 2.436-1.35 0-2.442-1.087-2.442-2.437 0-1.35 1.093-2.437 2.442-2.437 1.344 0 2.437 1.087 2.437 2.436M504.76 176.15c0 1.35-1.094 2.436-2.438 2.436-1.35 0-2.442-1.087-2.442-2.437 0-1.35 1.092-2.437 2.442-2.437 1.345 0 2.437 1.087 2.437 2.436M595.77 167.026c0 1.35-1.093 2.438-2.44 2.438-1.35 0-2.44-1.087-2.44-2.438 0-1.348 1.093-2.436 2.44-2.436s2.44 1.09 2.44 2.436M584.394 167.026c0 1.35-1.093 2.438-2.438 2.438-1.35 0-2.44-1.087-2.44-2.438 0-1.348 1.092-2.436 2.44-2.436 1.345 0 2.438 1.09 2.438 2.436M573.017 167.026c0 1.35-1.093 2.438-2.437 2.438-1.35 0-2.44-1.087-2.44-2.438 0-1.348 1.09-2.436 2.44-2.436 1.344 0 2.437 1.09 2.437 2.436M527.51 167.026c0 1.35-1.09 2.438-2.437 2.438-1.35 0-2.44-1.087-2.44-2.438 0-1.348 1.092-2.436 2.44-2.436 1.346 0 2.437 1.09 2.437 2.436M516.135 167.026c0 1.35-1.093 2.438-2.437 2.438-1.35 0-2.442-1.087-2.442-2.438 0-1.348 1.093-2.436 2.442-2.436 1.344 0 2.437 1.09 2.437 2.436M504.76 167.026c0 1.35-1.094 2.438-2.438 2.438-1.35 0-2.442-1.087-2.442-2.438 0-1.348 1.092-2.436 2.442-2.436 1.345 0 2.437 1.09 2.437 2.436M595.77 157.907c0 1.35-1.093 2.437-2.44 2.437-1.35 0-2.44-1.087-2.44-2.437 0-1.35 1.093-2.436 2.44-2.436 1.347.002 2.44 1.088 2.44 2.437M584.394 157.907c0 1.35-1.093 2.437-2.438 2.437-1.35 0-2.44-1.087-2.44-2.437 0-1.35 1.092-2.436 2.44-2.436 1.345.002 2.438 1.088 2.438 2.437M573.017 157.907c0 1.35-1.093 2.437-2.437 2.437-1.35 0-2.44-1.087-2.44-2.437 0-1.35 1.09-2.436 2.44-2.436 1.344.002 2.437 1.088 2.437 2.437M527.51 157.907c0 1.35-1.09 2.437-2.437 2.437-1.35 0-2.44-1.087-2.44-2.437 0-1.35 1.092-2.436 2.44-2.436 1.346.002 2.437 1.088 2.437 2.437M516.135 157.907c0 1.35-1.093 2.437-2.437 2.437-1.35 0-2.442-1.087-2.442-2.437 0-1.35 1.093-2.436 2.442-2.436 1.344.002 2.437 1.088 2.437 2.437M504.76 157.907c0 1.35-1.094 2.437-2.438 2.437-1.35 0-2.442-1.087-2.442-2.437 0-1.35 1.092-2.436 2.442-2.436 1.345.002 2.437 1.088 2.437 2.437M595.77 148.785c0 1.35-1.093 2.437-2.44 2.437-1.35 0-2.44-1.087-2.44-2.437 0-1.348 1.093-2.437 2.44-2.437s2.44 1.09 2.44 2.437M584.394 148.785c0 1.35-1.093 2.437-2.438 2.437-1.35 0-2.44-1.087-2.44-2.437 0-1.348 1.092-2.437 2.44-2.437 1.345 0 2.438 1.09 2.438 2.437M573.017 148.785c0 1.35-1.093 2.437-2.437 2.437-1.35 0-2.44-1.087-2.44-2.437 0-1.348 1.09-2.437 2.44-2.437 1.344 0 2.437 1.09 2.437 2.437M527.51 148.785c0 1.35-1.09 2.437-2.437 2.437-1.35 0-2.44-1.087-2.44-2.437 0-1.348 1.092-2.437 2.44-2.437 1.346 0 2.437 1.09 2.437 2.437M516.135 148.785c0 1.35-1.093 2.437-2.437 2.437-1.35 0-2.442-1.087-2.442-2.437 0-1.348 1.093-2.437 2.442-2.437 1.344 0 2.437 1.09 2.437 2.437M504.76 148.785c0 1.35-1.094 2.437-2.438 2.437-1.35 0-2.442-1.087-2.442-2.437 0-1.348 1.092-2.437 2.442-2.437 1.345 0 2.437 1.09 2.437 2.437"/></g></svg>